<svg id="meat-icon" xmlns="http://www.w3.org/2000/svg" width="24" height="14" viewBox="0 0 24 14">
  <g id="Group_208" data-name="Group 208">
    <g id="Group_199" data-name="Group 199" transform="translate(1.988)">
      <path id="Path_953" data-name="Path 953" d="M321.871,387.959a45.2,45.2,0,0,0,4.534-2.6c.414-.332.557-.521.557-.679a6.418,6.418,0,0,0-1.046-.855c-1.934-1.309-3.341-1.455-3.959-1.153-.447.218-5.691,2.832-8.451,4.093-2.44,1.115-2.094,2.419-2.094,2.419l3.356,2.211c.742-.417,1.189-.424,1.978-.806C318.322,389.827,320.331,388.8,321.871,387.959Z" transform="translate(-311.394 -382.543)" fill="#f9eacd"/>
      <g id="Group_198" data-name="Group 198" transform="translate(3.373 2.141)">
        <path id="Path_954" data-name="Path 954" d="M336.749,392.3a1.474,1.474,0,0,0,.726-.7,2.376,2.376,0,0,0-.469-.663c0,.158-.144.347-.557.679a45.214,45.214,0,0,1-4.534,2.6c-1.539.842-3.548,1.868-5.126,2.633-.789.383-1.236.389-1.978.806l.887.869c1.056-.595,2.17-1.092,3.237-1.659C330.376,396.1,336.59,392.39,336.749,392.3Z" transform="translate(-324.811 -390.944)" fill="#ead7b5"/>
        <path id="Path_955" data-name="Path 955" d="M330.833,399.9c2.9-1.755,8.656-5.139,9.045-5.367a.714.714,0,0,0,.239-.989,1.475,1.475,0,0,1-.726.7c-.159.086-6.373,3.8-7.814,4.564-1.067.567-2.181,1.064-3.237,1.659l.416.407A6.49,6.49,0,0,0,330.833,399.9Z" transform="translate(-327.453 -392.883)" fill="#d6bd94"/>
      </g>
    </g>
    <path id="Path_956" data-name="Path 956" d="M333.987,401.954a2.6,2.6,0,0,0-.693-.626.469.469,0,0,0-.672.16c-.122.213,0,.409.115.589.164.254.2.588.386.821a.6.6,0,0,0,1.036-.308A.7.7,0,0,0,333.987,401.954Z" transform="translate(-325.26 -396.484)" fill="#ead7b5"/>
    <path id="Path_957" data-name="Path 957" d="M315.448,398.608s-3.763.263-4.06,2.549c-.154,1.185.407,1.734,1.9,2.8,1.575,1.127,3.965,1.2,3.513-1.038A21.77,21.77,0,0,0,315.448,398.608Z" transform="translate(-309.383 -394.514)" fill="#d6bd94"/>
    <path id="Path_958" data-name="Path 958" d="M326.256,390.4a19.906,19.906,0,0,0,6.466-1.111,4.249,4.249,0,0,0,2.514-2.223,8.019,8.019,0,0,1-2.708,1.787,28.9,28.9,0,0,1-5.931,1.155Z" transform="translate(-320.532 -385.913)" fill="#d6bd94"/>
    <path id="Path_959" data-name="Path 959" d="M334.729,402.679c-.089-.225-.48-.624-.7-.539-.08.031-.121.08-.113.155a.263.263,0,0,0,0,.093,1.867,1.867,0,0,0,.191.472.72.72,0,0,0,.325.361.254.254,0,0,0,.322-.126A.537.537,0,0,0,334.729,402.679Z" transform="translate(-326.264 -397.137)" fill="#d6bd94"/>
    <path id="Path_960" data-name="Path 960" d="M340.3,401.435a.361.361,0,0,0-.4-.177.139.139,0,0,0-.1.192.507.507,0,0,0,.054.129c.045.085.09.17.136.255a.149.149,0,0,0,.232.03A.361.361,0,0,0,340.3,401.435Z" transform="translate(-330.66 -396.483)" fill="#ead7b5"/>
    <path id="Path_961" data-name="Path 961" d="M344.584,391.142c-.213.059-.425.121-.638.182a.237.237,0,0,0-.07.457.9.9,0,0,0,.631-.01.531.531,0,0,0,.3-.459A.176.176,0,0,0,344.584,391.142Z" transform="translate(-333.609 -388.946)" fill="#ead7b5"/>
    <path id="Path_962" data-name="Path 962" d="M337.835,392.836a1.487,1.487,0,0,0-.676.1.12.12,0,0,0,0,.2c.193.115.568.213.738.007A.207.207,0,0,0,337.835,392.836Z" transform="translate(-328.652 -390.2)" fill="#ead7b5"/>
    <path id="Path_963" data-name="Path 963" d="M351.524,385.816c-.17.028-.231.191-.389.258-.333.143-.59-.04-.886.183a.168.168,0,0,0-.031.248.971.971,0,0,0,.837.206c.251-.048.687-.188.793-.45A.317.317,0,0,0,351.524,385.816Z" transform="translate(-338.439 -384.979)" fill="#ead7b5"/>
    <path id="Path_964" data-name="Path 964" d="M363.361,388.91a1.172,1.172,0,0,0-.618.146.886.886,0,0,0-.208.32.709.709,0,0,0,.079.7.485.485,0,0,0,.6.158.515.515,0,0,0,.387-.431C363.692,389.212,363.633,389.016,363.361,388.91Z" transform="translate(-347.649 -387.281)" fill="#ead7b5"/>
    <path id="Path_965" data-name="Path 965" d="M363.695,390.68a.6.6,0,0,0-.312.074.451.451,0,0,0-.106.162.36.36,0,0,0,.04.357.246.246,0,0,0,.3.08.261.261,0,0,0,.2-.218C363.863,390.832,363.833,390.733,363.695,390.68Z" transform="translate(-348.225 -388.603)" fill="#d6bd94"/>
    <path id="Path_966" data-name="Path 966" d="M352.122,398.043c-.063.018-.654.042-.837.1a.259.259,0,0,0-.085.456.722.722,0,0,0,1.132-.344C352.382,398.13,352.236,398.01,352.122,398.043Z" transform="translate(-339.129 -394.089)" fill="#ead7b5"/>
    <path id="Path_967" data-name="Path 967" d="M343.922,402.531a3.215,3.215,0,0,0-.326.377.238.238,0,0,0,.166.286.279.279,0,0,0,.329-.13.891.891,0,0,0,.15-.383C344.227,402.315,344.063,402.4,343.922,402.531Z" transform="translate(-333.505 -397.352)" fill="#ead7b5"/>
    <path id="Path_968" data-name="Path 968" d="M315.854,400.129a16.338,16.338,0,0,0-2.377.495,2.263,2.263,0,0,0-1.459,2.386,2.694,2.694,0,0,0,1.048,1.356,6.329,6.329,0,0,0,2.511,1.291c.672.076,1.206-.093,1.394-.556.172-.423.189-.768-.15-1.961C316.315,401.357,315.854,400.129,315.854,400.129Z" transform="translate(-309.853 -395.647)" fill="#c4a578"/>
    <path id="Path_969" data-name="Path 969" d="M312.606,405.907c-.254-.907-.39-1.3-.536-1.81-.419-.461-1.082-.172-1.658-.1-.666.084-1.086-.305-2-.046a3.721,3.721,0,0,1-1.277.231c-.556.086-.25.565-.218.6.138.153.058.267-.114.37-.343.206-.346.672.208.694a1.6,1.6,0,0,0-.649.839c-.057.4.361.438.722.439-.18.256-.325.587.063.708.423.132.7-.154,1.044-.279-.142.382-.362.781.152.845a.925.925,0,0,0,.689-.184c-.218.414-.181.716-.085.787.476.35.8-.174.935-.355.105.291.086.677.595.657a.578.578,0,0,0,.386-.262c.136.46.678.429.9-.127a.447.447,0,0,0,.368.305c.663.01.752-1.44.753-1.83A7.376,7.376,0,0,0,312.606,405.907Z" transform="translate(-305.638 -398.413)" fill="#b4e20e"/>
    <path id="Path_970" data-name="Path 970" d="M311.832,406.405c-.16-.02-.379-.082-.508.057a.264.264,0,0,0-.008.352.34.34,0,0,0,.226.126.644.644,0,0,0-.269.415.355.355,0,0,0,.339.4.839.839,0,0,0,.678-.39c.263-.333.409-.661.809-.848C312.622,406.2,312.208,406.452,311.832,406.405Z" transform="translate(-309.3 -400.284)" fill="#a0c600"/>
    <path id="Path_971" data-name="Path 971" d="M323.754,409.982a2.939,2.939,0,0,0-.177-.9,13.387,13.387,0,0,1-.382-1.783c-.339.085-1.238.381-1.252.84-.005.176.4.376.186.618-.03.034-.329.26-.364.293-.209.2-.613.6-.406.8.157.15.629-.017.724.061.133.11.1.272-.1.554a.721.721,0,0,0,.1.809c.313.476.469-.182.75-.38s.457-.021.689-.257A.818.818,0,0,0,323.754,409.982Z" transform="translate(-316.823 -400.987)" fill="#a0c600"/>
    <path id="Path_972" data-name="Path 972" d="M309.406,412.451c-.286.016-.449.148-.207.314s.264.287.556.239a2.668,2.668,0,0,0,1.14-.642C310.421,411.989,309.85,412.427,309.406,412.451Z" transform="translate(-307.675 -404.65)" fill="#a0c600"/>
    <path id="Path_973" data-name="Path 973" d="M315.93,413.787a1.832,1.832,0,0,0-1.066.7.578.578,0,0,0-.155.459.31.31,0,0,0,.282.234.774.774,0,0,0,.692-.4c.071-.163-.017-.28-.01-.44A.969.969,0,0,1,315.93,413.787Z" transform="translate(-311.88 -405.824)" fill="#a0c600"/>
    <g id="Group_200" data-name="Group 200" transform="translate(2.97 7.582)">
      <path id="Path_974" data-name="Path 974" d="M315.316,414.23a1.963,1.963,0,0,1,1.173-.982,3.766,3.766,0,0,1,1.159-.233l.084.313a5.743,5.743,0,0,0-1.208.256A8.062,8.062,0,0,0,315.316,414.23Z" transform="translate(-315.312 -412.83)" fill="#ff4343"/>
      <path id="Path_975" data-name="Path 975" d="M315.3,413.691a.858.858,0,0,1,.311-.709,4.177,4.177,0,0,1,1.153-.691l.491.252a9.349,9.349,0,0,0-1.323.541A2.517,2.517,0,0,0,315.3,413.691Z" transform="translate(-315.299 -412.291)" fill="#ed2b2b"/>
    </g>
    <path id="Path_976" data-name="Path 976" d="M318.891,417.288a3.2,3.2,0,0,1-.475.264c-.149.049-.375.233-.2.389.137.12.367.009.367.009s-.069.272.141.3.306-.231.306-.231.08.25.219.234c.232-.027.251-.2.165-.385A3.462,3.462,0,0,0,318.891,417.288Z" transform="translate(-314.466 -408.433)" fill="#5e8e11"/>
    <g id="Group_201" data-name="Group 201" transform="translate(3.606 7.564)">
      <path id="Path_977" data-name="Path 977" d="M319.194,412.729a3.852,3.852,0,0,0-.978.522,3.945,3.945,0,0,0-.385.387s1.428-.084,1.884-.158,1.4-.365,1.4-.365l.23-.447-.115-.448S319.487,412.59,319.194,412.729Z" transform="translate(-317.83 -412.22)" fill="#ea8b4b"/>
      <path id="Path_978" data-name="Path 978" d="M317.83,414.442s.717-.211,1.256-.351,2.225-.792,2.225-.792l.062.447a3.579,3.579,0,0,1-1.418.645A14.66,14.66,0,0,1,317.83,414.442Z" transform="translate(-317.83 -413.024)" fill="#d2742e"/>
    </g>
    <path id="Path_979" data-name="Path 979" d="M326.708,418.966a1.053,1.053,0,0,0-.121.417c.008.172.037.373.037.373a.583.583,0,0,0,.285-.389A.437.437,0,0,0,326.708,418.966Z" transform="translate(-320.779 -409.683)" fill="#5e8e11"/>
    <g id="Group_202" data-name="Group 202" transform="translate(3.78 7.874)">
      <path id="Path_980" data-name="Path 980" d="M321.821,413.439c-.167.2-.612.729-.868.991a7.711,7.711,0,0,1-2.432.457,9.633,9.633,0,0,0,2.288.057,3.851,3.851,0,0,0,1.082-1.209Q321.858,413.586,321.821,413.439Z" transform="translate(-318.521 -413.439)" fill="#fff"/>
      <path id="Path_981" data-name="Path 981" d="M321.884,414.474a4.888,4.888,0,0,1-.816.85c-.649.5-2.547.334-2.547.334a2.663,2.663,0,0,0,3.443-.758Q321.933,414.686,321.884,414.474Z" transform="translate(-318.521 -414.21)" fill="#fec"/>
    </g>
    <path id="Path_982" data-name="Path 982" d="M311.538,411.074a5.417,5.417,0,0,1-.682.108c-.274.016-.415.044-.475.178-.09.2.246.226.246.226s-.318.156-.093.354c.179.157.453-.091.453-.091s-.05.308.127.318c.269.014.253-.35.3-.536S311.538,411.074,311.538,411.074Z" transform="translate(-308.636 -403.802)" fill="#5e8e11"/>
    <g id="Group_203" data-name="Group 203" transform="translate(1.303 5.752)">
      <path id="Path_983" data-name="Path 983" d="M312.093,405.149s-.532-.223-2.355.441a4.609,4.609,0,0,0-1.07.732,1.7,1.7,0,0,0,.629.294,2.193,2.193,0,0,0,1.083-.294C310.736,406.155,312.093,405.149,312.093,405.149Z" transform="translate(-308.668 -405.113)" fill="#ea8b4b"/>
      <path id="Path_984" data-name="Path 984" d="M308.668,406.917a2.583,2.583,0,0,0,.835.023c.311-.075,1.2-.671,1.477-.763s.884-.265.884-.265a9.8,9.8,0,0,1-1.948,1.2A1.092,1.092,0,0,1,308.668,406.917Z" transform="translate(-308.668 -405.708)" fill="#d2742e"/>
      <path id="Path_985" data-name="Path 985" d="M310.078,408.164a2.419,2.419,0,0,0,.6-.1,3.174,3.174,0,0,0,.712-.354s-.318.07-.559.139C310.643,407.906,310.078,408.164,310.078,408.164Z" transform="translate(-309.724 -407.05)" fill="#d2742e"/>
      <path id="Path_986" data-name="Path 986" d="M313.124,406.858a3.133,3.133,0,0,0,.592-.075,3.371,3.371,0,0,0,.463-.165A2.121,2.121,0,0,0,313.124,406.858Z" transform="translate(-312.004 -406.234)" fill="#d2742e"/>
    </g>
    <g id="Group_204" data-name="Group 204" transform="translate(2.711 5.66)">
      <path id="Path_987" data-name="Path 987" d="M318.52,405.38a4.652,4.652,0,0,0-1.144.061,2.859,2.859,0,0,0-2.168,1.078c-.129.379-.283.807-.283.807l.1.372s.3-1.4,1.263-1.735a6.777,6.777,0,0,1,2.361-.177A3.567,3.567,0,0,0,318.52,405.38Z" transform="translate(-314.761 -405.206)" fill="#f7d48d"/>
      <path id="Path_988" data-name="Path 988" d="M317.992,404.774a5.624,5.624,0,0,0-2.516.349,1.854,1.854,0,0,0-1.2,1.92l.254-.03s-.04-1.089,1.424-1.726a4.93,4.93,0,0,1,2.118-.2A2.036,2.036,0,0,0,317.992,404.774Z" transform="translate(-314.271 -404.75)" fill="#fff"/>
      <path id="Path_989" data-name="Path 989" d="M314.3,413.659v.283l.255-.083v-.229Z" transform="translate(-314.295 -411.366)" fill="#fff"/>
    </g>
    <path id="Path_990" data-name="Path 990" d="M321.816,412.074l.178.194a16.859,16.859,0,0,1,1.5-1.762c.38-.286.638-.527.638-.527l-.087-.4a9.064,9.064,0,0,0-1.038.96A9.864,9.864,0,0,0,321.816,412.074Z" transform="translate(-317.208 -402.685)" fill="#feb52c"/>
    <path id="Path_991" data-name="Path 991" d="M322.886,408.345a10.321,10.321,0,0,0-1.177,1.04c-.347.369-1.276,1.808-1.276,1.808l.348-.035a17.057,17.057,0,0,1,1.3-1.659c.438-.423.927-.84.927-.84Z" transform="translate(-316.172 -401.769)" fill="#ffd654"/>
    <g id="Group_205" data-name="Group 205" transform="translate(2.819 6.757)">
      <path id="Path_992" data-name="Path 992" d="M318.747,409.318l-3.872-.264-.176.018a2.735,2.735,0,0,0,1.3,1.38,2.879,2.879,0,0,0,2.224-.023,1.913,1.913,0,0,0,.7-.514A4.9,4.9,0,0,0,318.747,409.318Z" transform="translate(-314.699 -409.054)" fill="#ed2b2b"/>
      <path id="Path_993" data-name="Path 993" d="M319.268,409.311l-3.87-.257a3.514,3.514,0,0,0,.7.891,2.808,2.808,0,0,0,2.131.421,2.14,2.14,0,0,0,1.158-.674C319.354,409.563,319.313,409.436,319.268,409.311Z" transform="translate(-315.222 -409.054)" fill="#ff4343"/>
      <path id="Path_994" data-name="Path 994" d="M318.376,410.073a1.535,1.535,0,0,0-.9.063c-.156.11.521.748,1.242.829a2.819,2.819,0,0,0,1.46-.181c.359-.129.743-.511.344-.6-.279-.065-1.077.268-1.457.217S318.759,410.2,318.376,410.073Z" transform="translate(-316.762 -409.784)" fill="#ff6969"/>
      <path id="Path_995" data-name="Path 995" d="M319.8,410.9a2.9,2.9,0,0,0-.415.125c-.127.059.113.222.273.109S319.8,410.9,319.8,410.9Z" transform="translate(-318.178 -410.43)" fill="#ed2b2b"/>
      <path id="Path_996" data-name="Path 996" d="M321.531,411.61s-.237.187-.241.266.158.129.224.008A.4.4,0,0,0,321.531,411.61Z" transform="translate(-319.634 -410.959)" fill="#ed2b2b"/>
      <path id="Path_997" data-name="Path 997" d="M323.525,412.022a.31.31,0,0,0-.075.266c.017.092.19,0,.184-.066A.6.6,0,0,0,323.525,412.022Z" transform="translate(-321.246 -411.266)" fill="#ed2b2b"/>
      <path id="Path_998" data-name="Path 998" d="M325.232,411.855s-.058.285.006.339c.044.037.247-.044.188-.135A1.227,1.227,0,0,0,325.232,411.855Z" transform="translate(-322.566 -411.141)" fill="#ed2b2b"/>
      <path id="Path_999" data-name="Path 999" d="M326.4,411.6a1.08,1.08,0,0,1,.308.173c.059.075.014.228-.117.091A1.143,1.143,0,0,1,326.4,411.6Z" transform="translate(-323.462 -410.955)" fill="#ed2b2b"/>
      <path id="Path_1000" data-name="Path 1000" d="M327.42,411.157s.261-.027.337.074.073.233-.071.14A1.932,1.932,0,0,1,327.42,411.157Z" transform="translate(-324.222 -410.619)" fill="#ed2b2b"/>
    </g>
    <g id="Group_206" data-name="Group 206" transform="translate(0 5.002)">
      <path id="Path_1001" data-name="Path 1001" d="M309.667,402.17a19.3,19.3,0,0,0-4.028.843,4.935,4.935,0,0,0-2.154,1.353,23.552,23.552,0,0,1,3.772-1.316,25.264,25.264,0,0,1,2.624-.333C309.817,402.532,309.745,402.35,309.667,402.17Z" transform="translate(-303.485 -402.17)" fill="#ffd654"/>
      <path id="Path_1002" data-name="Path 1002" d="M309.829,403.747a30.305,30.305,0,0,0-3.079.429,12.708,12.708,0,0,0-3.266,1.365,16.2,16.2,0,0,1,1.619-.656,19.9,19.9,0,0,1,3.094-.709c.5-.06,1.149-.111,1.727-.149C309.9,403.933,309.864,403.839,309.829,403.747Z" transform="translate(-303.485 -403.345)" fill="#feb52c"/>
    </g>
    <path id="Path_1003" data-name="Path 1003" d="M320.888,405.245s-.668.037-.75-.205.177-.233.177-.233-.132-.355.067-.408.352.156.352.156.26-.212.417-.119.051.261-.022.371S320.888,405.245,320.888,405.245Z" transform="translate(-315.94 -398.822)" fill="#5e8e11"/>
    <g id="Group_207" data-name="Group 207" transform="translate(4.006 5.847)">
      <path id="Path_1004" data-name="Path 1004" d="M321.9,405.486a4.383,4.383,0,0,0-1.377.25,1.778,1.778,0,0,0-.979.925,1.482,1.482,0,0,0-.091.893s1.547-.835,1.892-1.056a4.9,4.9,0,0,0,.7-.581Z" transform="translate(-319.423 -405.486)" fill="#ea8b4b"/>
      <path id="Path_1005" data-name="Path 1005" d="M319.545,408.628a11.85,11.85,0,0,0,1.73-.75,4.644,4.644,0,0,1,.975-.471l-.143-.479S319.917,408.275,319.545,408.628Z" transform="translate(-319.514 -406.561)" fill="#d2742e"/>
      <path id="Path_1006" data-name="Path 1006" d="M321.086,409.291a5.449,5.449,0,0,0,.552,0,1.863,1.863,0,0,0,.5-.177,2.918,2.918,0,0,0-.5.011A4.057,4.057,0,0,0,321.086,409.291Z" transform="translate(-320.668 -408.186)" fill="#d2742e"/>
      <path id="Path_1007" data-name="Path 1007" d="M322.5,407.77a2.672,2.672,0,0,0,.61-.019c.172-.033.523-.118.523-.118s-.053-.056-.435-.07A1.263,1.263,0,0,0,322.5,407.77Z" transform="translate(-321.727 -407.033)" fill="#d2742e"/>
      <path id="Path_1008" data-name="Path 1008" d="M325.452,406.542a3.188,3.188,0,0,0,.544.016,4.071,4.071,0,0,0,.421-.06,2.024,2.024,0,0,0-.443-.067A2.18,2.18,0,0,0,325.452,406.542Z" transform="translate(-323.936 -406.19)" fill="#d2742e"/>
    </g>
    <path id="Path_1009" data-name="Path 1009" d="M310.528,400.983l-.1.138a5.488,5.488,0,0,0,2.377.566A9.615,9.615,0,0,0,315,401.6l-.129-.316Z" transform="translate(-308.685 -396.283)" fill="#ff4343"/>
    <path id="Path_1010" data-name="Path 1010" d="M310.816,400.983a7.038,7.038,0,0,0,2.636.557,15.462,15.462,0,0,0,1.775-.084l-.158-.405a15.461,15.461,0,0,1-2.089.083C312.092,401.084,310.816,400.983,310.816,400.983Z" transform="translate(-308.973 -396.283)" fill="#ed2b2b"/>
    <path id="Path_1011" data-name="Path 1011" d="M320.78,419.379l-.348.035.282.2.244-.046Z" transform="translate(-316.172 -409.991)" fill="#ffe292"/>
    <path id="Path_1012" data-name="Path 1012" d="M315.731,414.217a1.7,1.7,0,0,0-.337,0,.85.85,0,0,0-.368.2.771.771,0,0,0,.461,0A.489.489,0,0,0,315.731,414.217Z" transform="translate(-312.125 -406.138)" fill="#5e8e11"/>
    <path id="Path_1013" data-name="Path 1013" d="M314.47,405.757s.089.275.323.3.522.035.522.035a1.042,1.042,0,0,0-.326-.259A1.653,1.653,0,0,0,314.47,405.757Z" transform="translate(-311.709 -399.841)" fill="#5e8e11"/>
    <path id="Path_1014" data-name="Path 1014" d="M330.744,415.4c-.033.01-.287.069-.341.24a4.3,4.3,0,0,0-.095.6,3.718,3.718,0,0,0,.375-.294.53.53,0,0,0,.12-.257Z" transform="translate(-323.565 -407.026)" fill="#5e8e11"/>
    <path id="Path_1015" data-name="Path 1015" d="M325.452,402.854a.4.4,0,0,0,.239.319,1.6,1.6,0,0,0,.407.068,1.084,1.084,0,0,0-.24-.256A.5.5,0,0,0,325.452,402.854Z" transform="translate(-319.93 -397.673)" fill="#5e8e11"/>
    <path id="Path_1016" data-name="Path 1016" d="M352.14,387.033c-.11.032-.318,0-.4.1a.125.125,0,0,0-.031.12c.081.2.385.182.56.158.212-.029.457-.112.509-.351C352.8,386.944,352.676,386.875,352.14,387.033Z" transform="translate(-339.583 -385.82)" fill="#d6bd94"/>
  </g>
  <g id="Group_219" data-name="Group 219" transform="translate(5.878 3.053)">
    <g id="Group_210" data-name="Group 210" transform="translate(1.988)">
      <path id="Path_1017" data-name="Path 1017" d="M345.255,399.937a45.14,45.14,0,0,0,4.534-2.6c.414-.332.556-.521.557-.679a6.429,6.429,0,0,0-1.046-.855c-1.934-1.309-3.341-1.455-3.959-1.153-.447.218-5.691,2.832-8.451,4.093-2.44,1.115-2.094,2.419-2.094,2.419l3.356,2.211c.742-.417,1.189-.424,1.978-.806C341.707,401.805,343.716,400.779,345.255,399.937Z" transform="translate(-334.779 -394.521)" fill="#f9eacd"/>
      <g id="Group_209" data-name="Group 209" transform="translate(3.373 2.141)">
        <path id="Path_1018" data-name="Path 1018" d="M360.134,404.282a1.475,1.475,0,0,0,.726-.7,2.376,2.376,0,0,0-.469-.663c0,.158-.144.347-.557.679a45.136,45.136,0,0,1-4.534,2.6c-1.539.842-3.548,1.868-5.126,2.633-.789.383-1.236.389-1.978.806l.887.869c1.056-.595,2.17-1.092,3.237-1.659C353.761,408.08,359.975,404.368,360.134,404.282Z" transform="translate(-348.196 -402.922)" fill="#ead7b5"/>
        <path id="Path_1019" data-name="Path 1019" d="M354.218,411.88c2.9-1.755,8.656-5.139,9.045-5.367a.714.714,0,0,0,.239-.989,1.475,1.475,0,0,1-.726.7c-.159.086-6.373,3.8-7.814,4.564-1.067.567-2.182,1.064-3.237,1.659l.416.407A6.49,6.49,0,0,0,354.218,411.88Z" transform="translate(-350.838 -404.861)" fill="#d6bd94"/>
      </g>
    </g>
    <path id="Path_1020" data-name="Path 1020" d="M357.372,413.932a2.6,2.6,0,0,0-.693-.626.468.468,0,0,0-.672.159c-.122.213,0,.409.115.589.164.254.2.588.385.821a.6.6,0,0,0,1.036-.308A.7.7,0,0,0,357.372,413.932Z" transform="translate(-348.645 -408.462)" fill="#ead7b5"/>
    <path id="Path_1021" data-name="Path 1021" d="M338.833,410.586s-3.763.263-4.06,2.549c-.154,1.185.407,1.734,1.9,2.8,1.576,1.127,3.965,1.2,3.514-1.038A21.772,21.772,0,0,0,338.833,410.586Z" transform="translate(-332.767 -406.492)" fill="#d6bd94"/>
    <path id="Path_1022" data-name="Path 1022" d="M349.641,402.378a19.907,19.907,0,0,0,6.466-1.111,4.248,4.248,0,0,0,2.514-2.223,8.02,8.02,0,0,1-2.708,1.787,28.906,28.906,0,0,1-5.931,1.154Z" transform="translate(-343.917 -397.891)" fill="#d6bd94"/>
    <path id="Path_1023" data-name="Path 1023" d="M358.114,414.657c-.089-.225-.48-.624-.7-.539-.08.031-.121.08-.113.155a.25.25,0,0,0,0,.093,1.868,1.868,0,0,0,.191.472.719.719,0,0,0,.325.361.254.254,0,0,0,.322-.126A.537.537,0,0,0,358.114,414.657Z" transform="translate(-349.649 -409.115)" fill="#d6bd94"/>
    <path id="Path_1024" data-name="Path 1024" d="M363.682,413.413a.361.361,0,0,0-.4-.177.139.139,0,0,0-.1.192.506.506,0,0,0,.054.13c.045.085.09.171.136.255a.148.148,0,0,0,.232.03A.362.362,0,0,0,363.682,413.413Z" transform="translate(-354.045 -408.46)" fill="#ead7b5"/>
    <path id="Path_1025" data-name="Path 1025" d="M367.969,403.12c-.213.059-.425.121-.638.182a.237.237,0,0,0-.07.457.9.9,0,0,0,.631-.01.532.532,0,0,0,.3-.458A.176.176,0,0,0,367.969,403.12Z" transform="translate(-356.993 -400.924)" fill="#ead7b5"/>
    <path id="Path_1026" data-name="Path 1026" d="M361.22,404.813a1.492,1.492,0,0,0-.676.105.12.12,0,0,0,0,.2c.193.115.568.213.738.007A.207.207,0,0,0,361.22,404.813Z" transform="translate(-352.037 -402.177)" fill="#ead7b5"/>
    <path id="Path_1027" data-name="Path 1027" d="M374.909,397.794c-.17.028-.23.191-.389.258-.333.143-.59-.04-.886.183a.168.168,0,0,0-.031.248.971.971,0,0,0,.837.206c.251-.048.687-.188.793-.45A.317.317,0,0,0,374.909,397.794Z" transform="translate(-361.824 -396.957)" fill="#ead7b5"/>
    <path id="Path_1028" data-name="Path 1028" d="M386.745,400.888a1.173,1.173,0,0,0-.618.146.886.886,0,0,0-.208.32.711.711,0,0,0,.079.7.486.486,0,0,0,.6.158.515.515,0,0,0,.387-.431C387.077,401.19,387.018,400.994,386.745,400.888Z" transform="translate(-371.034 -399.26)" fill="#ead7b5"/>
    <path id="Path_1029" data-name="Path 1029" d="M387.079,402.658a.6.6,0,0,0-.313.074.45.45,0,0,0-.105.162.359.359,0,0,0,.04.357.246.246,0,0,0,.3.08.261.261,0,0,0,.2-.218C387.247,402.81,387.217,402.711,387.079,402.658Z" transform="translate(-371.61 -400.581)" fill="#d6bd94"/>
    <path id="Path_1030" data-name="Path 1030" d="M375.507,410.022c-.063.018-.654.042-.837.1a.259.259,0,0,0-.085.456.721.721,0,0,0,1.132-.344C375.767,410.109,375.621,409.989,375.507,410.022Z" transform="translate(-362.514 -406.067)" fill="#ead7b5"/>
    <path id="Path_1031" data-name="Path 1031" d="M367.307,414.509a3.218,3.218,0,0,0-.326.377.238.238,0,0,0,.166.286.279.279,0,0,0,.328-.13.888.888,0,0,0,.15-.383C367.612,414.294,367.448,414.376,367.307,414.509Z" transform="translate(-356.89 -409.331)" fill="#ead7b5"/>
    <path id="Path_1032" data-name="Path 1032" d="M339.239,412.107a16.341,16.341,0,0,0-2.377.495,2.263,2.263,0,0,0-1.459,2.386,2.7,2.7,0,0,0,1.047,1.356,6.331,6.331,0,0,0,2.512,1.291c.672.076,1.206-.093,1.394-.556.172-.423.189-.768-.15-1.961C339.7,413.335,339.239,412.107,339.239,412.107Z" transform="translate(-333.238 -407.625)" fill="#c4a578"/>
    <path id="Path_1033" data-name="Path 1033" d="M335.991,417.884c-.254-.907-.39-1.3-.536-1.81-.419-.461-1.082-.172-1.658-.1-.666.084-1.086-.305-2-.046a3.721,3.721,0,0,1-1.277.231c-.556.086-.25.565-.218.6.137.153.058.267-.114.37-.343.206-.346.672.208.693a1.6,1.6,0,0,0-.649.84c-.057.4.361.438.722.439-.18.256-.325.587.063.708.423.132.7-.155,1.044-.279-.142.382-.363.781.152.845a.925.925,0,0,0,.689-.184c-.218.414-.181.716-.085.787.476.35.8-.174.934-.355.106.292.087.677.6.656a.577.577,0,0,0,.386-.262c.136.46.677.429.9-.127a.447.447,0,0,0,.368.305c.663.01.752-1.44.753-1.83A7.4,7.4,0,0,0,335.991,417.884Z" transform="translate(-329.023 -410.391)" fill="#b4e20e"/>
    <path id="Path_1034" data-name="Path 1034" d="M335.217,418.383c-.161-.02-.379-.082-.508.057a.264.264,0,0,0-.008.352.34.34,0,0,0,.226.126.644.644,0,0,0-.269.415.355.355,0,0,0,.339.4.839.839,0,0,0,.678-.39c.263-.333.409-.661.809-.848C336.007,418.175,335.593,418.43,335.217,418.383Z" transform="translate(-332.685 -412.262)" fill="#a0c600"/>
    <path id="Path_1035" data-name="Path 1035" d="M347.139,421.96a2.948,2.948,0,0,0-.177-.9,13.427,13.427,0,0,1-.382-1.783c-.339.085-1.238.381-1.252.84-.005.176.4.376.187.618-.03.034-.329.26-.364.293-.209.2-.614.6-.406.8.157.15.629-.017.724.061.133.11.1.272-.1.554a.721.721,0,0,0,.1.809c.313.477.469-.182.75-.38s.457-.021.689-.257A.819.819,0,0,0,347.139,421.96Z" transform="translate(-340.208 -412.965)" fill="#a0c600"/>
    <path id="Path_1036" data-name="Path 1036" d="M332.791,424.429c-.287.016-.449.148-.207.314s.264.287.556.239a2.666,2.666,0,0,0,1.14-.642C333.806,423.967,333.234,424.405,332.791,424.429Z" transform="translate(-331.06 -416.628)" fill="#a0c600"/>
    <path id="Path_1037" data-name="Path 1037" d="M339.314,425.765a1.832,1.832,0,0,0-1.065.7.578.578,0,0,0-.155.459.31.31,0,0,0,.282.234.774.774,0,0,0,.692-.4c.071-.163-.017-.28-.01-.44A.97.97,0,0,1,339.314,425.765Z" transform="translate(-335.265 -417.802)" fill="#a0c600"/>
    <g id="Group_211" data-name="Group 211" transform="translate(2.97 7.582)">
      <path id="Path_1038" data-name="Path 1038" d="M338.7,426.209a1.963,1.963,0,0,1,1.173-.982,3.762,3.762,0,0,1,1.159-.233l.083.312a5.722,5.722,0,0,0-1.208.256A8.06,8.06,0,0,0,338.7,426.209Z" transform="translate(-338.697 -424.809)" fill="#ff4343"/>
      <path id="Path_1039" data-name="Path 1039" d="M338.689,425.669a.858.858,0,0,1,.311-.709,4.171,4.171,0,0,1,1.153-.691l.491.252a9.348,9.348,0,0,0-1.323.541A2.516,2.516,0,0,0,338.689,425.669Z" transform="translate(-338.684 -424.269)" fill="#ed2b2b"/>
    </g>
    <path id="Path_1040" data-name="Path 1040" d="M342.275,429.266a3.2,3.2,0,0,1-.475.264c-.149.049-.375.233-.2.389.137.12.367.009.367.009s-.069.272.141.3.306-.231.306-.231.08.25.219.233c.232-.027.251-.2.165-.384A3.472,3.472,0,0,0,342.275,429.266Z" transform="translate(-337.851 -420.411)" fill="#5e8e11"/>
    <g id="Group_212" data-name="Group 212" transform="translate(3.606 7.564)">
      <path id="Path_1041" data-name="Path 1041" d="M342.579,424.707a3.856,3.856,0,0,0-.979.522,3.962,3.962,0,0,0-.385.387s1.428-.084,1.884-.158,1.4-.365,1.4-.365l.231-.447-.115-.448S342.871,424.568,342.579,424.707Z" transform="translate(-341.215 -424.198)" fill="#ea8b4b"/>
      <path id="Path_1042" data-name="Path 1042" d="M341.215,426.421s.717-.211,1.256-.352,2.225-.791,2.225-.791l.062.447a3.579,3.579,0,0,1-1.418.645A14.658,14.658,0,0,1,341.215,426.421Z" transform="translate(-341.215 -425.003)" fill="#d2742e"/>
    </g>
    <path id="Path_1043" data-name="Path 1043" d="M350.093,430.944a1.053,1.053,0,0,0-.121.417c.008.172.037.373.037.373a.584.584,0,0,0,.285-.389A.437.437,0,0,0,350.093,430.944Z" transform="translate(-344.164 -421.661)" fill="#5e8e11"/>
    <g id="Group_213" data-name="Group 213" transform="translate(3.779 7.874)">
      <path id="Path_1044" data-name="Path 1044" d="M345.205,425.417c-.167.2-.612.729-.868.991a7.713,7.713,0,0,1-2.432.457,9.633,9.633,0,0,0,2.288.057,3.849,3.849,0,0,0,1.083-1.209Q345.242,425.565,345.205,425.417Z" transform="translate(-341.905 -425.417)" fill="#fff"/>
      <path id="Path_1045" data-name="Path 1045" d="M345.269,426.452a4.918,4.918,0,0,1-.816.85c-.649.5-2.547.334-2.547.334a2.663,2.663,0,0,0,3.443-.758C345.328,426.735,345.3,426.593,345.269,426.452Z" transform="translate(-341.905 -426.188)" fill="#fec"/>
    </g>
    <path id="Path_1046" data-name="Path 1046" d="M334.923,423.052a5.413,5.413,0,0,1-.682.108c-.274.016-.416.044-.475.178-.09.2.246.226.246.226s-.318.157-.093.354c.179.157.453-.091.453-.091s-.05.308.127.318c.269.015.253-.349.3-.536S334.923,423.052,334.923,423.052Z" transform="translate(-332.021 -415.78)" fill="#5e8e11"/>
    <g id="Group_214" data-name="Group 214" transform="translate(1.303 5.752)">
      <path id="Path_1047" data-name="Path 1047" d="M335.477,417.127s-.532-.223-2.355.441a4.608,4.608,0,0,0-1.07.732,1.708,1.708,0,0,0,.629.294,2.193,2.193,0,0,0,1.083-.294C334.12,418.133,335.477,417.127,335.477,417.127Z" transform="translate(-332.052 -417.091)" fill="#ea8b4b"/>
      <path id="Path_1048" data-name="Path 1048" d="M332.052,418.895a2.585,2.585,0,0,0,.836.023c.311-.075,1.2-.671,1.477-.763s.884-.265.884-.265a9.814,9.814,0,0,1-1.948,1.2A1.093,1.093,0,0,1,332.052,418.895Z" transform="translate(-332.052 -417.686)" fill="#d2742e"/>
      <path id="Path_1049" data-name="Path 1049" d="M333.463,420.142a2.412,2.412,0,0,0,.6-.1,3.173,3.173,0,0,0,.712-.354s-.318.07-.559.139C334.028,419.885,333.463,420.142,333.463,420.142Z" transform="translate(-333.108 -419.028)" fill="#d2742e"/>
      <path id="Path_1050" data-name="Path 1050" d="M336.509,418.835a3.135,3.135,0,0,0,.592-.075,3.349,3.349,0,0,0,.463-.165A2.122,2.122,0,0,0,336.509,418.835Z" transform="translate(-335.389 -418.211)" fill="#d2742e"/>
    </g>
    <g id="Group_215" data-name="Group 215" transform="translate(2.711 5.66)">
      <path id="Path_1051" data-name="Path 1051" d="M341.9,417.359a4.636,4.636,0,0,0-1.144.06,2.859,2.859,0,0,0-2.168,1.078c-.129.379-.283.807-.283.807l.1.372s.3-1.4,1.263-1.735a6.778,6.778,0,0,1,2.361-.177A3.544,3.544,0,0,0,341.9,417.359Z" transform="translate(-338.145 -417.184)" fill="#f7d48d"/>
      <path id="Path_1052" data-name="Path 1052" d="M341.376,416.752a5.623,5.623,0,0,0-2.516.349,1.854,1.854,0,0,0-1.2,1.92l.255-.03s-.04-1.089,1.424-1.726a4.931,4.931,0,0,1,2.118-.2A2.042,2.042,0,0,0,341.376,416.752Z" transform="translate(-337.655 -416.728)" fill="#fff"/>
      <path id="Path_1053" data-name="Path 1053" d="M337.688,425.637v.283l.255-.083v-.229Z" transform="translate(-337.68 -423.344)" fill="#fff"/>
    </g>
    <path id="Path_1054" data-name="Path 1054" d="M345.2,424.052l.178.194a16.855,16.855,0,0,1,1.5-1.762c.38-.286.638-.527.638-.527l-.087-.4a9.06,9.06,0,0,0-1.038.96A9.887,9.887,0,0,0,345.2,424.052Z" transform="translate(-340.592 -414.663)" fill="#feb52c"/>
    <path id="Path_1055" data-name="Path 1055" d="M346.271,420.323a10.325,10.325,0,0,0-1.177,1.04c-.347.369-1.276,1.808-1.276,1.808l.348-.035a17.036,17.036,0,0,1,1.3-1.659c.438-.423.927-.84.927-.84Z" transform="translate(-339.557 -413.747)" fill="#ffd654"/>
    <g id="Group_216" data-name="Group 216" transform="translate(2.819 6.757)">
      <path id="Path_1056" data-name="Path 1056" d="M342.132,421.3l-3.872-.264-.176.018a2.734,2.734,0,0,0,1.3,1.38,2.879,2.879,0,0,0,2.224-.023,1.913,1.913,0,0,0,.7-.514A4.884,4.884,0,0,0,342.132,421.3Z" transform="translate(-338.084 -421.032)" fill="#ed2b2b"/>
      <path id="Path_1057" data-name="Path 1057" d="M342.653,421.289l-3.87-.257a3.518,3.518,0,0,0,.7.891,2.808,2.808,0,0,0,2.131.421,2.139,2.139,0,0,0,1.158-.674Q342.721,421.477,342.653,421.289Z" transform="translate(-338.607 -421.032)" fill="#ff4343"/>
      <path id="Path_1058" data-name="Path 1058" d="M341.761,422.051a1.535,1.535,0,0,0-.9.063c-.157.11.521.748,1.242.829a2.816,2.816,0,0,0,1.46-.181c.359-.129.743-.51.344-.6-.28-.065-1.077.268-1.457.217S342.144,422.173,341.761,422.051Z" transform="translate(-340.147 -421.763)" fill="#ff6969"/>
      <path id="Path_1059" data-name="Path 1059" d="M343.181,422.879a2.91,2.91,0,0,0-.415.125c-.127.059.114.222.273.109S343.181,422.879,343.181,422.879Z" transform="translate(-341.563 -422.408)" fill="#ed2b2b"/>
      <path id="Path_1060" data-name="Path 1060" d="M344.916,423.588s-.237.187-.241.266.158.129.224.008A.4.4,0,0,0,344.916,423.588Z" transform="translate(-343.019 -422.937)" fill="#ed2b2b"/>
      <path id="Path_1061" data-name="Path 1061" d="M346.91,424a.31.31,0,0,0-.075.266c.017.091.19,0,.184-.066A.6.6,0,0,0,346.91,424Z" transform="translate(-344.631 -423.243)" fill="#ed2b2b"/>
      <path id="Path_1062" data-name="Path 1062" d="M348.617,423.833s-.058.285.006.339c.044.037.247-.044.188-.135A1.227,1.227,0,0,0,348.617,423.833Z" transform="translate(-345.951 -423.119)" fill="#ed2b2b"/>
      <path id="Path_1063" data-name="Path 1063" d="M349.789,423.583a1.08,1.08,0,0,1,.308.173c.059.075.014.228-.117.091A1.143,1.143,0,0,1,349.789,423.583Z" transform="translate(-346.847 -422.933)" fill="#ed2b2b"/>
      <path id="Path_1064" data-name="Path 1064" d="M350.8,423.135s.261-.027.337.074.073.233-.071.14A1.93,1.93,0,0,1,350.8,423.135Z" transform="translate(-347.607 -422.597)" fill="#ed2b2b"/>
    </g>
    <g id="Group_217" data-name="Group 217" transform="translate(0 5.002)">
      <path id="Path_1065" data-name="Path 1065" d="M333.052,414.148a19.293,19.293,0,0,0-4.028.843,4.932,4.932,0,0,0-2.154,1.353,23.553,23.553,0,0,1,3.772-1.316,25.282,25.282,0,0,1,2.624-.333C333.2,414.51,333.13,414.328,333.052,414.148Z" transform="translate(-326.87 -414.148)" fill="#ffd654"/>
      <path id="Path_1066" data-name="Path 1066" d="M333.214,415.725a30.3,30.3,0,0,0-3.079.429,12.707,12.707,0,0,0-3.265,1.365,16.175,16.175,0,0,1,1.619-.656,19.915,19.915,0,0,1,3.095-.709c.5-.06,1.148-.111,1.727-.149C333.28,415.911,333.249,415.817,333.214,415.725Z" transform="translate(-326.87 -415.323)" fill="#feb52c"/>
    </g>
    <path id="Path_1067" data-name="Path 1067" d="M344.273,417.223s-.668.037-.75-.205.177-.233.177-.233-.133-.355.067-.408.352.156.352.156.26-.212.417-.119.051.261-.022.371S344.273,417.223,344.273,417.223Z" transform="translate(-339.325 -410.8)" fill="#5e8e11"/>
    <g id="Group_218" data-name="Group 218" transform="translate(4.006 5.847)">
      <path id="Path_1068" data-name="Path 1068" d="M345.286,417.464a4.383,4.383,0,0,0-1.377.25,1.778,1.778,0,0,0-.979.925,1.482,1.482,0,0,0-.091.893s1.547-.835,1.892-1.056a4.9,4.9,0,0,0,.7-.581Z" transform="translate(-342.808 -417.464)" fill="#ea8b4b"/>
      <path id="Path_1069" data-name="Path 1069" d="M342.93,420.606a11.851,11.851,0,0,0,1.73-.75,4.642,4.642,0,0,1,.975-.471l-.143-.479S343.3,420.253,342.93,420.606Z" transform="translate(-342.899 -418.538)" fill="#d2742e"/>
      <path id="Path_1070" data-name="Path 1070" d="M344.47,421.27a5.463,5.463,0,0,0,.552,0,1.864,1.864,0,0,0,.5-.177,2.915,2.915,0,0,0-.5.011A4.043,4.043,0,0,0,344.47,421.27Z" transform="translate(-344.052 -420.164)" fill="#d2742e"/>
      <path id="Path_1071" data-name="Path 1071" d="M345.885,419.748a2.673,2.673,0,0,0,.61-.019c.172-.033.523-.118.523-.118s-.053-.055-.435-.07A1.266,1.266,0,0,0,345.885,419.748Z" transform="translate(-345.112 -419.01)" fill="#d2742e"/>
      <path id="Path_1072" data-name="Path 1072" d="M348.837,418.52a3.183,3.183,0,0,0,.544.016,4.081,4.081,0,0,0,.421-.06,2.024,2.024,0,0,0-.443-.067A2.179,2.179,0,0,0,348.837,418.52Z" transform="translate(-347.322 -418.168)" fill="#d2742e"/>
    </g>
    <path id="Path_1073" data-name="Path 1073" d="M333.913,412.961l-.1.138a5.488,5.488,0,0,0,2.377.566,9.613,9.613,0,0,0,2.188-.086l-.129-.316Z" transform="translate(-332.07 -408.261)" fill="#ff4343"/>
    <path id="Path_1074" data-name="Path 1074" d="M334.2,412.961a7.038,7.038,0,0,0,2.636.557,15.469,15.469,0,0,0,1.775-.084l-.158-.406a15.47,15.47,0,0,1-2.089.083C335.477,413.062,334.2,412.961,334.2,412.961Z" transform="translate(-332.357 -408.261)" fill="#ed2b2b"/>
    <path id="Path_1075" data-name="Path 1075" d="M344.165,431.357l-.348.035.282.2.244-.046Z" transform="translate(-339.557 -421.969)" fill="#ffe292"/>
    <path id="Path_1076" data-name="Path 1076" d="M339.116,426.2a1.7,1.7,0,0,0-.337,0,.85.85,0,0,0-.368.2.768.768,0,0,0,.461,0A.489.489,0,0,0,339.116,426.2Z" transform="translate(-335.51 -418.116)" fill="#5e8e11"/>
    <path id="Path_1077" data-name="Path 1077" d="M337.855,417.736s.089.274.322.3.522.035.522.035a1.046,1.046,0,0,0-.326-.259A1.658,1.658,0,0,0,337.855,417.736Z" transform="translate(-335.094 -411.819)" fill="#5e8e11"/>
    <path id="Path_1078" data-name="Path 1078" d="M354.129,427.378c-.033.01-.287.069-.341.24a4.259,4.259,0,0,0-.095.6,3.718,3.718,0,0,0,.375-.294.53.53,0,0,0,.12-.257Z" transform="translate(-346.95 -419.004)" fill="#5e8e11"/>
    <path id="Path_1079" data-name="Path 1079" d="M348.837,414.832a.4.4,0,0,0,.239.319,1.6,1.6,0,0,0,.407.068,1.09,1.09,0,0,0-.24-.256A.5.5,0,0,0,348.837,414.832Z" transform="translate(-343.315 -409.651)" fill="#5e8e11"/>
    <path id="Path_1080" data-name="Path 1080" d="M375.525,399.011c-.11.032-.318,0-.4.1a.125.125,0,0,0-.031.12c.081.2.385.182.56.158.212-.029.457-.112.509-.351C376.188,398.922,376.06,398.853,375.525,399.011Z" transform="translate(-362.968 -397.798)" fill="#d6bd94"/>
  </g>
</svg>
