<svg id="editors-pick-icon" xmlns="http://www.w3.org/2000/svg" width="20" height="24" viewBox="0 0 20 24">
  <path id="Path_443" data-name="Path 443" d="M50.474,256.672l-3.666-.065-1.47-3.435L51,244.484l5.136,3.5Z" transform="translate(-44.994 -233.023)" fill="#ec381c"/>
  <path id="Path_444" data-name="Path 444" d="M114.209,248.327a1.044,1.044,0,0,1,.066.347l.018,1.018a1.028,1.028,0,0,0,.5.869l1.678.991a.983.983,0,0,0,.986.009l.871-.493a.984.984,0,0,1,.486-.128h1.109l1.926-2.956-5.136-3.5Z" transform="translate(-110.708 -233.023)" fill="#fc624a"/>
  <path id="Path_445" data-name="Path 445" d="M67.1,279.639l.473,1.1,1.179.021,6.406-9.831L73.5,269.807Z" transform="translate(-65.757 -257.159)" fill="#f4fbff"/>
  <path id="Path_446" data-name="Path 446" d="M137.771,269.807l-3.318,5.093,1.334.788a.985.985,0,0,0,.448.135l3.187-4.891Z" transform="translate(-130.024 -257.159)" fill="#e4f6ff"/>
  <path id="Path_447" data-name="Path 447" d="M236.771,256.672l3.666-.065,1.47-3.435-5.661-8.688-5.136,3.5Z" transform="translate(-222.251 -233.023)" fill="#ec381c"/>
  <path id="Path_448" data-name="Path 448" d="M238.75,248.328a1.044,1.044,0,0,0-.066.347l-.018,1.018a1.029,1.029,0,0,1-.5.869l-1.678.991a.983.983,0,0,1-.986.009l-.871-.493a.984.984,0,0,0-.486-.128h-1.109l-1.926-2.956,5.136-3.5Z" transform="translate(-222.25 -233.024)" fill="#fc624a"/>
  <path id="Path_449" data-name="Path 449" d="M277.174,279.639l-.473,1.1-1.179.021-6.406-9.831,1.651-1.125Z" transform="translate(-258.515 -257.159)" fill="#f4fbff"/>
  <path id="Path_450" data-name="Path 450" d="M270.768,269.807l3.318,5.093-1.334.788a.985.985,0,0,1-.448.135l-3.187-4.891Z" transform="translate(-258.515 -257.159)" fill="#e4f6ff"/>
  <path id="Path_451" data-name="Path 451" d="M72.913,14.013l.772.475a.932.932,0,0,1,.44.795v1.793a.932.932,0,0,1-.44.795l-.772.475a.918.918,0,0,0-.318.331L70.885,21.7a.944.944,0,0,0-.121.447l-.016.921a.931.931,0,0,1-.453.787l-1.518.9a.889.889,0,0,1-.893.008l-.788-.446a.891.891,0,0,0-.439-.116h-3.42a.891.891,0,0,0-.439.116l-.788.446a.889.889,0,0,1-.893-.008l-1.518-.9a.931.931,0,0,1-.453-.787l-.016-.921a.943.943,0,0,0-.121-.447L57.3,18.675a.918.918,0,0,0-.318-.331l-.772-.475a.932.932,0,0,1-.44-.795V15.282a.932.932,0,0,1,.44-.795l.772-.475a.918.918,0,0,0,.318-.331l1.71-3.029a.943.943,0,0,0,.121-.447l.016-.921A.931.931,0,0,1,59.6,8.5l1.518-.9a.889.889,0,0,1,.893-.008l.788.446a.891.891,0,0,0,.439.116h3.42a.891.891,0,0,0,.439-.116l.788-.446a.889.889,0,0,1,.893.008l1.518.9a.931.931,0,0,1,.453.787l.016.921a.943.943,0,0,0,.121.447l1.71,3.029A.918.918,0,0,0,72.913,14.013Z" transform="translate(-54.946 -7.128)" fill="#ec381c"/>
  <g id="Group_10742" data-name="Group 10742" transform="translate(12.592 0.351)">
    <path id="Path_452" data-name="Path 452" d="M318.677,14.488l-.772-.475a.918.918,0,0,1-.318-.331l-1.71-3.029a.944.944,0,0,1-.121-.447l-.016-.921a.931.931,0,0,0-.453-.787l-1.518-.9a.889.889,0,0,0-.893-.008l-.345.2,1.2.709a.931.931,0,0,1,.453.787l.016.921a.943.943,0,0,0,.121.447l1.71,3.029a.918.918,0,0,0,.318.331l.772.475a.932.932,0,0,1,.439.795v1.793a.932.932,0,0,1-.439.795l-.772.475a.918.918,0,0,0-.318.331l-1.71,3.029a.944.944,0,0,0-.121.447l-.016.921a.931.931,0,0,1-.453.787l-1.2.709.345.2a.889.889,0,0,0,.893-.008l1.518-.9a.931.931,0,0,0,.453-.787l.016-.921a.943.943,0,0,1,.121-.447l1.71-3.029a.918.918,0,0,1,.318-.331l.772-.475a.932.932,0,0,0,.44-.795V15.282a.932.932,0,0,0-.44-.795Z" transform="translate(-312.53 -7.478)" fill="#fc624a"/>
  </g>
  <ellipse id="Ellipse_10" data-name="Ellipse 10" cx="5.735" cy="5.864" rx="5.735" ry="5.864" transform="translate(4.265 3.187)" fill="#f4fbff"/>
  <path id="Path_453" data-name="Path 453" d="M238.431,67.985a5.65,5.65,0,0,0-.844.063,5.886,5.886,0,0,1,0,11.6,5.654,5.654,0,0,0,.844.063,5.866,5.866,0,0,0,0-11.729Z" transform="translate(-228.431 -64.798)" fill="#e4f6ff"/>
  <path id="Path_454" data-name="Path 454" d="M192.924,123.736l.989,1.316a.272.272,0,0,0,.125.093l1.53.555a.28.28,0,0,1,.133.419l-.919,1.369a.282.282,0,0,0-.048.15l-.044,1.66a.273.273,0,0,1-.349.259l-1.557-.47a.266.266,0,0,0-.154,0l-1.557.47a.273.273,0,0,1-.349-.259l-.044-1.66a.283.283,0,0,0-.048-.15l-.919-1.369a.28.28,0,0,1,.133-.419l1.53-.555a.272.272,0,0,0,.125-.093l.989-1.316A.268.268,0,0,1,192.924,123.736Z" transform="translate(-182.708 -117.832)" fill="#ec381c"/>
  <path id="Path_455" data-name="Path 455" d="M240.9,125.7l-1.53-.555a.272.272,0,0,1-.125-.093l-.989-1.316a.268.268,0,0,0-.431,0l-.647.861.687.915a.272.272,0,0,0,.125.093l1.53.555a.28.28,0,0,1,.133.419l-.919,1.369a.282.282,0,0,0-.048.15l-.03,1.152,1.017.307a.273.273,0,0,0,.349-.259l.044-1.66a.282.282,0,0,1,.048-.15l.919-1.369A.28.28,0,0,0,240.9,125.7Z" transform="translate(-228.044 -117.832)" fill="#fc624a"/>
  <g id="Group_10743" data-name="Group 10743">
    <path id="Path_456" data-name="Path 456" d="M129.468,60.485a6.217,6.217,0,1,0,6.078,6.216A6.155,6.155,0,0,0,129.468,60.485Zm0,11.729a5.514,5.514,0,1,1,5.391-5.513A5.459,5.459,0,0,1,129.468,72.214Z" transform="translate(-119.468 -57.65)" fill="#212529"/>
    <path id="Path_457" data-name="Path 457" d="M57.781,19.954l-3.559-5.462,1.563-2.768a.571.571,0,0,1,.2-.206l.772-.475a1.292,1.292,0,0,0,.606-1.1V8.155a1.291,1.291,0,0,0-.606-1.1l-.772-.475a.572.572,0,0,1-.2-.206L55.6,6.043a.34.34,0,0,0-.47-.129.356.356,0,0,0-.126.48l.189.335a1.269,1.269,0,0,0,.439.457l.772.475a.581.581,0,0,1,.273.493V9.948a.581.581,0,0,1-.273.493l-.772.475a1.268,1.268,0,0,0-.439.457L53.48,14.4a1.3,1.3,0,0,0-.167.617l-.016.921a.581.581,0,0,1-.281.488l-1.518.9a.554.554,0,0,1-.554,0l-.788-.446a1.232,1.232,0,0,0-.606-.16h-3.42a1.232,1.232,0,0,0-.606.16l-.788.446a.555.555,0,0,1-.554,0l-1.518-.9a.581.581,0,0,1-.281-.488l-.016-.921A1.3,1.3,0,0,0,42.2,14.4l-1.71-3.029a1.269,1.269,0,0,0-.439-.457l-.772-.475A.581.581,0,0,1,39,9.948V8.155a.581.581,0,0,1,.273-.493l.772-.475a1.268,1.268,0,0,0,.439-.457L42.2,3.7a1.3,1.3,0,0,0,.167-.617l.016-.921a.581.581,0,0,1,.281-.488l1.518-.9a.555.555,0,0,1,.554,0l.788.446a1.232,1.232,0,0,0,.606.16h3.42a1.233,1.233,0,0,0,.606-.16l.788-.446a.555.555,0,0,1,.554,0l1.518.9a.581.581,0,0,1,.281.488l.016.921a1.3,1.3,0,0,0,.167.617l.842,1.491a.34.34,0,0,0,.47.129.356.356,0,0,0,.126-.48L54.075,3.35A.588.588,0,0,1,54,3.073l-.016-.921a1.291,1.291,0,0,0-.625-1.085L51.84.17A1.233,1.233,0,0,0,50.609.159l-.788.446a.555.555,0,0,1-.273.072h-3.42a.555.555,0,0,1-.273-.072L45.068.159A1.233,1.233,0,0,0,43.837.17l-1.518.9a1.291,1.291,0,0,0-.625,1.085l-.016.921a.586.586,0,0,1-.075.278l-1.71,3.029a.572.572,0,0,1-.2.206l-.772.475a1.292,1.292,0,0,0-.606,1.1V9.948a1.291,1.291,0,0,0,.606,1.1l.772.475a.571.571,0,0,1,.2.206l1.563,2.768L37.9,19.954a.358.358,0,0,0-.029.336l1,2.33h0l.473,1.1a.344.344,0,0,0,.309.211L43.312,24h.006a.342.342,0,0,0,.286-.157l4.182-6.419h.1L51,22.19a.341.341,0,0,0,.286.157.336.336,0,0,0,.19-.059.356.356,0,0,0,.1-.487l-2.851-4.375h.831a.555.555,0,0,1,.273.072l.788.446a1.221,1.221,0,0,0,.192.087l3.41,5.234-1.67.03-.209-.321a.339.339,0,0,0-.477-.1.356.356,0,0,0-.1.487l.314.481a.342.342,0,0,0,.286.157h.006l3.666-.065a.344.344,0,0,0,.309-.211l1.47-3.435A.358.358,0,0,0,57.781,19.954ZM44.049,18.031l-3.4,5.219-.77-.014-.309-.722,3.341-5.128.925.546a1.221,1.221,0,0,0,.212.1Zm-2.365-2.622.009.542a1.291,1.291,0,0,0,.621,1.083l-3.072,4.716-.67-1.565Zm1.452,7.885-1.67-.03,3.41-5.234a1.223,1.223,0,0,0,.192-.087l.788-.446a.555.555,0,0,1,.273-.072h.831Zm8.492-5.262a1.22,1.22,0,0,0,.212-.1l.925-.546,3.341,5.128-.309.722-.77.014Zm4.807,3.718-3.072-4.716a1.291,1.291,0,0,0,.621-1.083l.009-.542L57.1,20.184Z" transform="translate(-37.839 0)" fill="#212529"/>
    <path id="Path_458" data-name="Path 458" d="M188.521,118.221l-1.51-.548-.976-1.3a.607.607,0,0,0-.976,0l-.976,1.3-1.51.548a.619.619,0,0,0-.38.4.637.637,0,0,0,.078.551l.866,1.29a.339.339,0,0,0,.478.091.357.357,0,0,0,.089-.489l-.813-1.211,1.442-.523a.615.615,0,0,0,.282-.21l.932-1.24.932,1.24a.615.615,0,0,0,.282.21l1.442.523-.866,1.29a.639.639,0,0,0-.108.339l-.041,1.564-1.467-.443a.6.6,0,0,0-.349,0l-1.467.443-.01-.375a.344.344,0,1,0-.687.019l.012.471a.629.629,0,0,0,.253.492.6.6,0,0,0,.536.094l1.536-.464,1.537.464a.6.6,0,0,0,.536-.094.629.629,0,0,0,.253-.492l.043-1.638.907-1.351a.637.637,0,0,0,.078-.551A.619.619,0,0,0,188.521,118.221Z" transform="translate(-175.547 -110.684)" fill="#212529"/>
  </g>
</svg>
