<svg id="pastry-icon" xmlns="http://www.w3.org/2000/svg" width="24" height="14" viewBox="0 0 24 14">
  <g id="Group_171" data-name="Group 171" transform="translate(0 0.036)">
    <ellipse id="Ellipse_24" data-name="Ellipse 24" cx="12" cy="6.597" rx="12" ry="6.597" transform="translate(0 0.771)" fill="#a34843"/>
    <rect id="Rectangle_41" data-name="Rectangle 41" width="23.99" height="1.047" transform="translate(0.01 6.597)" fill="#a34843"/>
    <ellipse id="Ellipse_25" data-name="Ellipse 25" cx="12" cy="6.597" rx="12" ry="6.597" transform="translate(0 0)" fill="#c15f5f"/>
    <g id="Group_170" data-name="Group 170" transform="translate(1.016 0.687)">
      <path id="Path_666" data-name="Path 666" d="M219.069,28.568c-6.051,0-10.973-2.574-10.973-5.737s4.922-5.736,10.973-5.736,10.973,2.573,10.973,5.736S225.119,28.568,219.069,28.568Zm0-11.2c-5.9,0-10.7,2.449-10.7,5.459s4.8,5.459,10.7,5.459,10.7-2.449,10.7-5.459S224.971,17.372,219.069,17.372Z" transform="translate(-208.096 -17.095)" fill="#a34843"/>
    </g>
  </g>
  <g id="Group_172" data-name="Group 172" transform="translate(0.497)">
    <path id="Path_667" data-name="Path 667" d="M227.956,24.562a2.862,2.862,0,0,1,.432,1.538,3.7,3.7,0,0,1-.988,2.794,11.31,11.31,0,0,1-3.679,2.313,14.226,14.226,0,0,1-3.679.563,21.758,21.758,0,0,1-2.772.441,16.764,16.764,0,0,1-5.355-1,10.737,10.737,0,0,1-3.356-1.309,7.5,7.5,0,0,1-1.494-1.637,3,3,0,0,1-.913-2.161,4.566,4.566,0,0,1,1.24-2.807,8.08,8.08,0,0,1,1.435-1.323,7.608,7.608,0,0,0-1.911,1.637,4.727,4.727,0,0,0-1.283,2.905,3.107,3.107,0,0,0,.945,2.237,7.767,7.767,0,0,0,1.546,1.695A11.117,11.117,0,0,0,211.6,31.8a17.354,17.354,0,0,0,5.543,1.04,22.535,22.535,0,0,0,2.869-.457,14.73,14.73,0,0,0,3.808-.583,11.7,11.7,0,0,0,3.808-2.395,3.833,3.833,0,0,0,1.023-2.892A3.071,3.071,0,0,0,227.956,24.562Z" transform="translate(-205.633 -20.187)" fill="#f4b12c"/>
    <path id="Path_668" data-name="Path 668" d="M209.336,16.882a4.566,4.566,0,0,0-1.24,2.807,3,3,0,0,0,.913,2.161,7.5,7.5,0,0,0,1.494,1.637,10.737,10.737,0,0,0,3.356,1.309,16.764,16.764,0,0,0,5.355,1,21.758,21.758,0,0,0,2.772-.441,14.225,14.225,0,0,0,3.679-.563,11.31,11.31,0,0,0,3.679-2.313,3.7,3.7,0,0,0,.988-2.794,2.862,2.862,0,0,0-.432-1.538,7.828,7.828,0,0,0-.953-1.007,10.445,10.445,0,0,0-2.655-1.974,12.973,12.973,0,0,0-3.883-1.126,35.729,35.729,0,0,0-3.708-.268c-2.745,0-4.477.723-6.767,1.31a4.728,4.728,0,0,0-1.162.474A8.08,8.08,0,0,0,209.336,16.882Z" transform="translate(-207.577 -13.775)" fill="#ffca61"/>
  </g>
  <g id="Group_173" data-name="Group 173" transform="translate(1.51 0.428)">
    <path id="Path_669" data-name="Path 669" d="M215.954,19.593a10.919,10.919,0,0,0-2.414.386,4.888,4.888,0,0,0-1.491,1.2c-.821.814-1.911,1.565-1.522,2.9a.137.137,0,0,0,.263-.075,2.622,2.622,0,0,1,.64-1.541,5.886,5.886,0,0,1,.514-.447,14.414,14.414,0,0,1,1.246-1.079A24.78,24.78,0,0,1,216,19.753.087.087,0,0,0,215.954,19.593Z" transform="translate(-210.445 -18.755)" fill="#ffe3a6" opacity="0.5"/>
    <path id="Path_670" data-name="Path 670" d="M258.924,16.557c-.206-.032-.41-.075-.613-.123a8.713,8.713,0,0,0-3.415-.68c-.378.029-1.884-.038-1.828.645.061.752,1.467.154,1.78.091a6.034,6.034,0,0,1,2.813.288,1.453,1.453,0,0,0,1.289-.019C259.023,16.716,259.017,16.571,258.924,16.557Z" transform="translate(-244.09 -15.74)" fill="#ffe3a6" opacity="0.5"/>
    <path id="Path_671" data-name="Path 671" d="M289.113,57.987a.627.627,0,0,0-.6.071c-.525.074-1.81.393-1.528.871.168.285.861-.054,1.071-.111a1.991,1.991,0,0,0,1.091-.6A.152.152,0,0,0,289.113,57.987Z" transform="translate(-270.83 -48.75)" fill="#ffe3a6" opacity="0.5"/>
    <path id="Path_672" data-name="Path 672" d="M302.186,50.475a1.391,1.391,0,0,0-.6.407c-.236.211-.917.858-.974.913-.084.082.023.2.117.157a5.242,5.242,0,0,0,.965-.507,2.519,2.519,0,0,0,.623-.8A.119.119,0,0,0,302.186,50.475Z" transform="translate(-281.598 -42.914)" fill="#ffe3a6" opacity="0.5"/>
    <path id="Path_673" data-name="Path 673" d="M263.912,63.893a.5.5,0,0,0-.121-.035.03.03,0,0,0-.012-.023c-.194-.133-.557-.031-.756.048s-.393.182-.4.423a.135.135,0,0,0,.095.129,1.477,1.477,0,0,0,1.224-.276A.149.149,0,0,0,263.912,63.893Z" transform="translate(-251.637 -53.316)" fill="#ffe3a6" opacity="0.5"/>
    <path id="Path_674" data-name="Path 674" d="M298.057,24.92a5.561,5.561,0,0,0-1.57-1.353.142.142,0,0,0-.17.176.8.8,0,0,0,.313.38,1.7,1.7,0,0,1,.412.559.823.823,0,0,0,.935.442C298.069,25.107,298.09,24.992,298.057,24.92Z" transform="translate(-278.226 -21.858)" fill="#ffe3a6" opacity="0.5"/>
    <path id="Path_675" data-name="Path 675" d="M310.26,37.726a.052.052,0,0,0-.024-.021.047.047,0,0,0-.068-.038c-.258.152-.13.354-.123.611.005.178-.137.547.085.651C310.507,39.105,310.347,37.893,310.26,37.726Z" transform="translate(-289.038 -32.89)" fill="#ffe3a6" opacity="0.5"/>
    <path id="Path_676" data-name="Path 676" d="M217.2,53.544a4.915,4.915,0,0,0-.751-.746.138.138,0,0,0-.169.022c-.183.215.053.437.213.57a.887.887,0,0,0,.673.283A.08.08,0,0,0,217.2,53.544Z" transform="translate(-215.002 -44.718)" fill="#ffe3a6" opacity="0.5"/>
  </g>
  <path id="Path_677" data-name="Path 677" d="M217.986,20.112a1.726,1.726,0,0,0-1.449.933,4.024,4.024,0,0,1-1.7,1.107A1.779,1.779,0,0,0,213.427,24c.007.531,1.057,1.033,1.116,1.767a2.441,2.441,0,0,0,2.269,2.172,27.106,27.106,0,0,1,5.04.832c.549.342,2.4-.313,3.173.019s2.914-1.1,3.344-1.016a7.148,7.148,0,0,0,3.755-.888c.927-.747.91-.575,1.159-1.685.156-.7.495-1.6,0-2.217-.567-.711-1.45-.649-1.994-1.429a2.839,2.839,0,0,0-2.082-1.374c-1.318-.382-3.648.121-4.238.115s-1.149-.874-2.477-.9A28.4,28.4,0,0,0,217.986,20.112Z" transform="translate(-211.289 -18.173)" fill="#ef622b" opacity="0.5"/>
  <path id="Path_678" data-name="Path 678" d="M224.717,22.828c-.722.289-1.629,1.623-2.336,1.944s-2.284-.019-2.251,1.7a3.511,3.511,0,0,0,1.4,2.786c.549.641,3,1.077,3.723,1.053s3.243.651,4.522.1,2.124-.172,3.009-.381,2.655-.673,3.127-1.3,2.507-1.337,1.667-2.4-1.494-1.12-1.885-1.529.113-1.062-1.527-1.349-3.558.162-4.245-.28a2.7,2.7,0,0,0-2.357-.617A12.734,12.734,0,0,0,224.717,22.828Z" transform="translate(-216.58 -20.615)" fill="#ed2b2b" opacity="0.8"/>
  <g id="Group_174" data-name="Group 174" transform="translate(8.31 9.111)">
    <rect id="Rectangle_42" data-name="Rectangle 42" width="4.21" height="0.235" transform="translate(0 1.145)" fill="#5e8e11"/>
    <path id="Path_679" data-name="Path 679" d="M246.941,57.632c0,.639-.942,1.157-2.1,1.157s-2.1-.518-2.1-1.157.942-1.157,2.1-1.157S246.941,56.993,246.941,57.632Z" transform="translate(-242.731 -56.293)" fill="#5e8e11"/>
    <ellipse id="Ellipse_26" data-name="Ellipse 26" cx="2.105" cy="1.157" rx="2.105" ry="1.157" fill="#bed134"/>
    <ellipse id="Ellipse_27" data-name="Ellipse 27" cx="1.885" cy="0.975" rx="1.885" ry="0.975" transform="translate(0.219 0.182)" fill="#71aa21"/>
    <path id="Path_680" data-name="Path 680" d="M246.728,58.719a1.218,1.218,0,0,0-.923-.51c-.7.056-.606.315-.42.51S246.166,58.876,246.728,58.719Z" transform="translate(-244.72 -57.648)" fill="#5e8e11"/>
    <path id="Path_681" data-name="Path 681" d="M253.015,58.948a1.762,1.762,0,0,1,1-.437c.541,0,.572.246.39.446C254.184,59.205,253.577,59.1,253.015,58.948Z" transform="translate(-250.849 -57.886)" fill="#5e8e11"/>
    <path id="Path_682" data-name="Path 682" d="M248.155,60.955s-.768.188-1,.275-.03.42.456.425C248.243,61.661,248.155,60.955,248.155,60.955Z" transform="translate(-246.147 -59.798)" fill="#5e8e11"/>
    <path id="Path_683" data-name="Path 683" d="M252.794,60.955a8.554,8.554,0,0,1,1,.275c.279.129-.11.42-.595.425C252.567,61.661,252.794,60.955,252.794,60.955Z" transform="translate(-250.644 -59.798)" fill="#5e8e11"/>
    <path id="Path_684" data-name="Path 684" d="M251.2,57.632a3.688,3.688,0,0,1-.392-.409c-.07-.114.087-.271.453-.274.506,0,.548.15.379.341A1.933,1.933,0,0,1,251.2,57.632Z" transform="translate(-249.091 -56.664)" fill="#5e8e11"/>
  </g>
  <g id="Group_175" data-name="Group 175" transform="translate(12.04 4.211)">
    <rect id="Rectangle_43" data-name="Rectangle 43" width="4.21" height="0.235" transform="translate(0 1.146)" fill="#5e8e11"/>
    <path id="Path_685" data-name="Path 685" d="M264.652,35.118c0,.639-.942,1.157-2.1,1.157s-2.1-.518-2.1-1.157.942-1.157,2.1-1.157S264.652,34.479,264.652,35.118Z" transform="translate(-260.443 -33.779)" fill="#5e8e11"/>
    <path id="Path_686" data-name="Path 686" d="M264.652,34.281c0,.639-.942,1.157-2.1,1.157s-2.1-.518-2.1-1.157.942-1.157,2.1-1.157S264.652,33.642,264.652,34.281Z" transform="translate(-260.443 -33.124)" fill="#bed134"/>
    <path id="Path_687" data-name="Path 687" d="M265.256,34.936c0,.538-.844.975-1.885.975s-1.885-.436-1.885-.975.844-.975,1.885-.975S265.256,34.4,265.256,34.936Z" transform="translate(-261.266 -33.779)" fill="#71aa21"/>
    <path id="Path_688" data-name="Path 688" d="M264.44,36.205a1.218,1.218,0,0,0-.923-.51c-.7.056-.606.314-.42.51S263.878,36.362,264.44,36.205Z" transform="translate(-262.432 -35.133)" fill="#5e8e11"/>
    <path id="Path_689" data-name="Path 689" d="M270.728,36.434a1.762,1.762,0,0,1,1-.437c.541,0,.572.246.39.446C271.9,36.691,271.29,36.591,270.728,36.434Z" transform="translate(-268.562 -35.372)" fill="#5e8e11"/>
    <path id="Path_690" data-name="Path 690" d="M265.867,38.441s-.768.188-1,.275-.029.42.456.425C265.955,39.147,265.867,38.441,265.867,38.441Z" transform="translate(-263.86 -37.284)" fill="#5e8e11"/>
    <path id="Path_691" data-name="Path 691" d="M270.506,38.441a8.543,8.543,0,0,1,1,.275c.279.129-.11.42-.595.425C270.279,39.147,270.506,38.441,270.506,38.441Z" transform="translate(-268.356 -37.284)" fill="#5e8e11"/>
    <path id="Path_692" data-name="Path 692" d="M268.908,35.118a3.69,3.69,0,0,1-.392-.409c-.07-.114.087-.271.453-.274.505,0,.548.15.379.341A1.929,1.929,0,0,1,268.908,35.118Z" transform="translate(-266.803 -34.15)" fill="#5e8e11"/>
  </g>
  <g id="Group_176" data-name="Group 176" transform="translate(3.358 2.627)">
    <rect id="Rectangle_44" data-name="Rectangle 44" width="4.21" height="0.235" transform="translate(0 1.145)" fill="#5e8e11"/>
    <path id="Path_693" data-name="Path 693" d="M223.428,27.839c0,.639-.942,1.157-2.1,1.157s-2.1-.518-2.1-1.157.942-1.157,2.1-1.157S223.428,27.2,223.428,27.839Z" transform="translate(-219.218 -26.5)" fill="#5e8e11"/>
    <path id="Path_694" data-name="Path 694" d="M223.428,27c0,.639-.942,1.157-2.1,1.157s-2.1-.518-2.1-1.157.942-1.157,2.1-1.157S223.428,26.363,223.428,27Z" transform="translate(-219.218 -25.845)" fill="#bed134"/>
    <path id="Path_695" data-name="Path 695" d="M224.031,27.657c0,.538-.844.975-1.885.975s-1.885-.437-1.885-.975.844-.975,1.885-.975S224.031,27.118,224.031,27.657Z" transform="translate(-220.04 -26.5)" fill="#71aa21"/>
    <path id="Path_696" data-name="Path 696" d="M223.215,28.926a1.218,1.218,0,0,0-.923-.51c-.7.056-.606.314-.42.51S222.653,29.083,223.215,28.926Z" transform="translate(-221.207 -27.854)" fill="#5e8e11"/>
    <path id="Path_697" data-name="Path 697" d="M229.5,29.154a1.763,1.763,0,0,1,1-.437c.541,0,.572.246.39.447C230.671,29.411,230.064,29.311,229.5,29.154Z" transform="translate(-227.336 -28.092)" fill="#5e8e11"/>
    <path id="Path_698" data-name="Path 698" d="M224.642,31.161s-.768.188-1,.275-.029.42.456.425C224.73,31.868,224.642,31.161,224.642,31.161Z" transform="translate(-222.634 -30.004)" fill="#5e8e11"/>
    <path id="Path_699" data-name="Path 699" d="M229.281,31.161a8.565,8.565,0,0,1,1,.275c.279.129-.109.42-.595.425C229.054,31.868,229.281,31.161,229.281,31.161Z" transform="translate(-227.131 -30.004)" fill="#5e8e11"/>
    <path id="Path_700" data-name="Path 700" d="M227.682,27.839a3.7,3.7,0,0,1-.392-.409c-.07-.114.087-.271.453-.273.506,0,.548.15.379.341A1.937,1.937,0,0,1,227.682,27.839Z" transform="translate(-225.577 -26.871)" fill="#5e8e11"/>
  </g>
  <g id="Group_177" data-name="Group 177" transform="translate(5.293 5.951)">
    <rect id="Rectangle_45" data-name="Rectangle 45" width="4.21" height="0.235" transform="translate(0 1.146)" fill="#5e8e11"/>
    <path id="Path_701" data-name="Path 701" d="M232.615,43.112c0,.639-.942,1.157-2.1,1.157s-2.1-.518-2.1-1.157.942-1.157,2.1-1.157S232.615,42.473,232.615,43.112Z" transform="translate(-228.405 -41.773)" fill="#5e8e11"/>
    <path id="Path_702" data-name="Path 702" d="M232.615,42.275c0,.639-.942,1.157-2.1,1.157s-2.1-.518-2.1-1.157.942-1.157,2.1-1.157S232.615,41.636,232.615,42.275Z" transform="translate(-228.405 -41.118)" fill="#bed134"/>
    <path id="Path_703" data-name="Path 703" d="M233.219,42.93c0,.538-.844.975-1.885.975s-1.885-.436-1.885-.975.844-.975,1.885-.975S233.219,42.392,233.219,42.93Z" transform="translate(-229.228 -41.773)" fill="#71aa21"/>
    <path id="Path_704" data-name="Path 704" d="M232.4,44.2a1.218,1.218,0,0,0-.923-.51c-.7.057-.606.315-.42.51S231.841,44.356,232.4,44.2Z" transform="translate(-230.395 -43.127)" fill="#5e8e11"/>
    <path id="Path_705" data-name="Path 705" d="M238.69,44.428a1.762,1.762,0,0,1,1-.437c.541,0,.572.246.39.446C239.859,44.685,239.252,44.585,238.69,44.428Z" transform="translate(-236.524 -43.366)" fill="#5e8e11"/>
    <path id="Path_706" data-name="Path 706" d="M233.83,46.435s-.768.188-1,.275-.029.42.456.425C233.918,47.141,233.83,46.435,233.83,46.435Z" transform="translate(-231.822 -45.278)" fill="#5e8e11"/>
    <path id="Path_707" data-name="Path 707" d="M238.469,46.435a8.541,8.541,0,0,1,1,.275c.279.129-.109.42-.595.425C238.242,47.141,238.469,46.435,238.469,46.435Z" transform="translate(-236.318 -45.278)" fill="#5e8e11"/>
    <path id="Path_708" data-name="Path 708" d="M236.87,43.112a3.708,3.708,0,0,1-.392-.409c-.07-.114.087-.271.453-.274.506,0,.548.15.379.341A1.933,1.933,0,0,1,236.87,43.112Z" transform="translate(-234.765 -42.144)" fill="#5e8e11"/>
  </g>
  <g id="Group_178" data-name="Group 178" transform="translate(7.814 2.381)">
    <rect id="Rectangle_46" data-name="Rectangle 46" width="4.21" height="0.235" transform="translate(0 1.145)" fill="#5e8e11"/>
    <path id="Path_709" data-name="Path 709" d="M244.585,26.71c0,.639-.942,1.157-2.1,1.157s-2.1-.518-2.1-1.157.942-1.157,2.1-1.157S244.585,26.071,244.585,26.71Z" transform="translate(-240.375 -25.371)" fill="#5e8e11"/>
    <ellipse id="Ellipse_28" data-name="Ellipse 28" cx="2.105" cy="1.157" rx="2.105" ry="1.157" transform="translate(0)" fill="#bed134"/>
    <path id="Path_710" data-name="Path 710" d="M245.188,26.528c0,.538-.844.975-1.885.975s-1.885-.436-1.885-.975.844-.975,1.885-.975S245.188,25.99,245.188,26.528Z" transform="translate(-241.198 -25.371)" fill="#71aa21"/>
    <path id="Path_711" data-name="Path 711" d="M244.372,27.8a1.217,1.217,0,0,0-.923-.51c-.7.056-.606.314-.42.51S243.81,27.954,244.372,27.8Z" transform="translate(-242.365 -26.726)" fill="#5e8e11"/>
    <path id="Path_712" data-name="Path 712" d="M250.66,28.026a1.762,1.762,0,0,1,1-.437c.541,0,.572.246.39.446C251.829,28.283,251.222,28.183,250.66,28.026Z" transform="translate(-248.494 -26.964)" fill="#5e8e11"/>
    <path id="Path_713" data-name="Path 713" d="M245.8,30.033s-.768.188-1,.275-.029.42.456.425C245.887,30.739,245.8,30.033,245.8,30.033Z" transform="translate(-243.792 -28.876)" fill="#5e8e11"/>
    <path id="Path_714" data-name="Path 714" d="M250.439,30.033a8.543,8.543,0,0,1,1,.275c.279.129-.11.42-.595.425C250.212,30.739,250.439,30.033,250.439,30.033Z" transform="translate(-248.288 -28.876)" fill="#5e8e11"/>
    <path id="Path_715" data-name="Path 715" d="M248.84,26.71a3.731,3.731,0,0,1-.392-.409c-.07-.114.087-.271.453-.274.505,0,.548.15.379.341A1.928,1.928,0,0,1,248.84,26.71Z" transform="translate(-246.735 -25.742)" fill="#5e8e11"/>
  </g>
  <g id="Group_179" data-name="Group 179" transform="translate(11.989 1.042)">
    <rect id="Rectangle_47" data-name="Rectangle 47" width="4.21" height="0.235" transform="translate(0 1.145)" fill="#5e8e11"/>
    <ellipse id="Ellipse_29" data-name="Ellipse 29" cx="2.105" cy="1.157" rx="2.105" ry="1.157" transform="translate(0 0.182)" fill="#5e8e11"/>
    <ellipse id="Ellipse_30" data-name="Ellipse 30" cx="2.105" cy="1.157" rx="2.105" ry="1.157" transform="translate(0)" fill="#bed134"/>
    <path id="Path_716" data-name="Path 716" d="M265.012,20.375c0,.538-.844.975-1.885.975s-1.885-.436-1.885-.975.844-.975,1.885-.975S265.012,19.837,265.012,20.375Z" transform="translate(-261.022 -19.218)" fill="#71aa21"/>
    <path id="Path_717" data-name="Path 717" d="M264.2,21.644a1.218,1.218,0,0,0-.923-.51c-.7.057-.606.315-.42.51S263.634,21.8,264.2,21.644Z" transform="translate(-262.189 -20.573)" fill="#5e8e11"/>
    <path id="Path_718" data-name="Path 718" d="M270.483,21.873a1.763,1.763,0,0,1,1-.437c.541,0,.572.246.39.446C271.652,22.13,271.045,22.03,270.483,21.873Z" transform="translate(-268.317 -20.811)" fill="#5e8e11"/>
    <path id="Path_719" data-name="Path 719" d="M265.623,23.88s-.768.188-1,.275-.029.42.456.425C265.711,24.586,265.623,23.88,265.623,23.88Z" transform="translate(-263.616 -22.723)" fill="#5e8e11"/>
    <path id="Path_720" data-name="Path 720" d="M270.262,23.88a8.6,8.6,0,0,1,1,.275c.279.129-.109.42-.595.425C270.035,24.586,270.262,23.88,270.262,23.88Z" transform="translate(-268.112 -22.723)" fill="#5e8e11"/>
    <path id="Path_721" data-name="Path 721" d="M268.664,20.558a3.69,3.69,0,0,1-.392-.409c-.07-.114.087-.271.453-.273.506,0,.548.15.379.341A1.932,1.932,0,0,1,268.664,20.558Z" transform="translate(-266.559 -19.59)" fill="#5e8e11"/>
  </g>
  <g id="Group_180" data-name="Group 180" transform="translate(17.008 3.217)">
    <rect id="Rectangle_48" data-name="Rectangle 48" width="4.21" height="0.235" transform="translate(0 1.145)" fill="#5e8e11"/>
    <path id="Path_722" data-name="Path 722" d="M288.243,30.549c0,.639-.942,1.157-2.1,1.157s-2.1-.518-2.1-1.157.942-1.157,2.1-1.157S288.243,29.91,288.243,30.549Z" transform="translate(-284.033 -29.21)" fill="#5e8e11"/>
    <ellipse id="Ellipse_31" data-name="Ellipse 31" cx="2.105" cy="1.157" rx="2.105" ry="1.157" fill="#bed134"/>
    <path id="Path_723" data-name="Path 723" d="M288.846,30.367c0,.538-.844.975-1.885.975s-1.885-.437-1.885-.975.844-.975,1.885-.975S288.846,29.829,288.846,30.367Z" transform="translate(-284.855 -29.21)" fill="#71aa21"/>
    <path id="Path_724" data-name="Path 724" d="M288.03,31.637a1.218,1.218,0,0,0-.923-.51c-.7.056-.606.314-.42.51S287.468,31.794,288.03,31.637Z" transform="translate(-286.022 -30.565)" fill="#5e8e11"/>
    <path id="Path_725" data-name="Path 725" d="M294.317,31.865a1.763,1.763,0,0,1,1-.437c.541,0,.572.246.39.447C295.486,32.122,294.879,32.022,294.317,31.865Z" transform="translate(-292.151 -30.803)" fill="#5e8e11"/>
    <path id="Path_726" data-name="Path 726" d="M289.457,33.872s-.768.188-1,.275-.029.42.456.425C289.545,34.578,289.457,33.872,289.457,33.872Z" transform="translate(-287.449 -32.715)" fill="#5e8e11"/>
    <path id="Path_727" data-name="Path 727" d="M294.1,33.872a8.6,8.6,0,0,1,1,.275c.279.129-.11.42-.595.425C293.869,34.578,294.1,33.872,294.1,33.872Z" transform="translate(-291.946 -32.715)" fill="#5e8e11"/>
    <path id="Path_728" data-name="Path 728" d="M292.5,30.55a3.69,3.69,0,0,1-.392-.409c-.07-.114.087-.271.453-.273.506,0,.548.15.379.341A1.937,1.937,0,0,1,292.5,30.55Z" transform="translate(-290.393 -29.582)" fill="#5e8e11"/>
  </g>
  <g id="Group_181" data-name="Group 181" transform="translate(5.248 7.968)">
    <rect id="Rectangle_49" data-name="Rectangle 49" width="4.786" height="0.267" transform="translate(0 1.302)" fill="#ed2b2b"/>
    <path id="Path_729" data-name="Path 729" d="M232.978,52.653c0,.726-1.071,1.315-2.393,1.315s-2.393-.589-2.393-1.315,1.071-1.315,2.393-1.315S232.978,51.927,232.978,52.653Z" transform="translate(-228.192 -51.131)" fill="#ed2b2b"/>
    <path id="Path_730" data-name="Path 730" d="M232.978,51.7c0,.726-1.071,1.315-2.393,1.315s-2.393-.589-2.393-1.315,1.071-1.315,2.393-1.315S232.978,50.976,232.978,51.7Z" transform="translate(-228.192 -50.387)" fill="#ff6969"/>
    <path id="Path_731" data-name="Path 731" d="M233.663,52.446c0,.612-.96,1.108-2.143,1.108s-2.143-.5-2.143-1.108.96-1.108,2.143-1.108S233.663,51.834,233.663,52.446Z" transform="translate(-229.127 -51.131)" fill="#ff4343"/>
    <path id="Path_732" data-name="Path 732" d="M231.234,53.462a.652.652,0,0,1-.02-1.2,3.069,3.069,0,0,1,2.068-.275c.307.076-.017.37-.381.4a2.828,2.828,0,0,0-.789.168c-.278.126-.385.315-.376.412C231.753,53.14,231.408,53.456,231.234,53.462Z" transform="translate(-230.267 -51.583)" fill="#ed2b2b"/>
    <path id="Path_733" data-name="Path 733" d="M234.894,54.347c-.221.12-.56.435-.182.55a3.084,3.084,0,0,0,2.2-.18c.582-.284.721-.753.381-1.082-.247-.239-.492-.259-.63-.167-.321.215-.039.6-.663.725A5.4,5.4,0,0,0,234.894,54.347Z" transform="translate(-233.205 -52.758)" fill="#ed2b2b"/>
    <path id="Path_734" data-name="Path 734" d="M240.148,52.7s.167-.224-.035-.219C239.981,52.488,240.148,52.7,240.148,52.7Z" transform="translate(-237.563 -52.028)" fill="#ff6969"/>
    <path id="Path_735" data-name="Path 735" d="M238.464,52.715s0-.285-.215-.25C238.107,52.488,238.464,52.715,238.464,52.715Z" transform="translate(-236.104 -52.011)" fill="#ff6969"/>
    <path id="Path_736" data-name="Path 736" d="M236.656,52.979s-.139-.259-.3-.208S236.656,52.979,236.656,52.979Z" transform="translate(-234.614 -52.247)" fill="#ff6969"/>
    <path id="Path_737" data-name="Path 737" d="M234.748,53.491s-.165-.308-.38-.216S234.748,53.491,234.748,53.491Z" transform="translate(-233.03 -52.632)" fill="#ff6969"/>
    <path id="Path_738" data-name="Path 738" d="M233.178,54.423s-.262-.322-.5-.163C232.515,54.366,233.178,54.423,233.178,54.423Z" transform="translate(-231.712 -53.382)" fill="#ff6969"/>
    <path id="Path_739" data-name="Path 739" d="M232.433,55.76s-.384-.137-.514-.042S232.159,55.948,232.433,55.76Z" transform="translate(-231.113 -54.532)" fill="#ff6969"/>
    <path id="Path_740" data-name="Path 740" d="M232.739,56.983a.951.951,0,0,0-.4.1c-.063.045,0,.153.127.128A.347.347,0,0,0,232.739,56.983Z" transform="translate(-231.449 -55.547)" fill="#ff6969"/>
    <path id="Path_741" data-name="Path 741" d="M244.558,54.318a.414.414,0,0,1,.276-.1c.156.009.23.113.045.126A1.073,1.073,0,0,1,244.558,54.318Z" transform="translate(-241.111 -53.381)" fill="#ff6969"/>
    <path id="Path_742" data-name="Path 742" d="M236.016,57.971a.868.868,0,0,0-.243.208c-.052.091.149.185.211.02S236.016,57.971,236.016,57.971Z" transform="translate(-234.17 -56.32)" fill="#ff6969"/>
    <path id="Path_743" data-name="Path 743" d="M238.059,57.971a.348.348,0,0,0-.068.228c.007.141.183.175.171,0A.279.279,0,0,0,238.059,57.971Z" transform="translate(-235.927 -56.32)" fill="#ff6969"/>
    <path id="Path_744" data-name="Path 744" d="M239.765,57.8a1.146,1.146,0,0,0,.039.264c.036.114.292.174.188-.027A.444.444,0,0,0,239.765,57.8Z" transform="translate(-237.328 -56.19)" fill="#ff6969"/>
    <path id="Path_745" data-name="Path 745" d="M241.509,57.678a.943.943,0,0,0,.207.292c.136.124.279.03.152-.111A.716.716,0,0,0,241.509,57.678Z" transform="translate(-238.704 -56.091)" fill="#ff6969"/>
    <path id="Path_746" data-name="Path 746" d="M243.032,57.1a1.247,1.247,0,0,0,.3.266c.162.094.325,0,.13-.114A1.32,1.32,0,0,0,243.032,57.1Z" transform="translate(-239.907 -55.641)" fill="#ff6969"/>
    <path id="Path_747" data-name="Path 747" d="M244.157,56.231a1.537,1.537,0,0,0,.448.221c.172.028.282-.161.088-.195A3.7,3.7,0,0,0,244.157,56.231Z" transform="translate(-240.795 -54.958)" fill="#ff6969"/>
    <path id="Path_748" data-name="Path 748" d="M244.672,55.31a1.143,1.143,0,0,1,.372-.06c.139.017.26.114.11.121A2.962,2.962,0,0,1,244.672,55.31Z" transform="translate(-241.201 -54.19)" fill="#ff6969"/>
  </g>
  <g id="Group_182" data-name="Group 182" transform="translate(12.114 8.533)">
    <rect id="Rectangle_50" data-name="Rectangle 50" width="4.786" height="0.267" transform="translate(0 1.302)" fill="#ed2b2b"/>
    <path id="Path_749" data-name="Path 749" d="M265.582,55.249c0,.726-1.071,1.315-2.393,1.315s-2.393-.589-2.393-1.315,1.071-1.315,2.393-1.315S265.582,54.523,265.582,55.249Z" transform="translate(-260.796 -53.727)" fill="#ed2b2b"/>
    <path id="Path_750" data-name="Path 750" d="M265.582,54.3c0,.726-1.071,1.315-2.393,1.315S260.8,55.025,260.8,54.3s1.071-1.315,2.393-1.315S265.582,53.572,265.582,54.3Z" transform="translate(-260.796 -52.983)" fill="#ff6969"/>
    <path id="Path_751" data-name="Path 751" d="M266.268,55.042c0,.612-.96,1.108-2.143,1.108s-2.143-.5-2.143-1.108.959-1.108,2.143-1.108S266.268,54.43,266.268,55.042Z" transform="translate(-261.731 -53.727)" fill="#ff4343"/>
    <path id="Path_752" data-name="Path 752" d="M263.838,56.058a.652.652,0,0,1-.02-1.2,3.066,3.066,0,0,1,2.068-.275c.307.075-.017.37-.381.4a2.829,2.829,0,0,0-.789.168c-.278.126-.385.315-.376.412C264.357,55.736,264.012,56.052,263.838,56.058Z" transform="translate(-262.871 -54.179)" fill="#ed2b2b"/>
    <path id="Path_753" data-name="Path 753" d="M267.5,56.943c-.221.12-.56.435-.182.55a3.083,3.083,0,0,0,2.2-.18c.582-.284.721-.752.381-1.082-.247-.239-.492-.259-.63-.167-.321.215-.039.6-.663.725A5.4,5.4,0,0,0,267.5,56.943Z" transform="translate(-265.809 -55.354)" fill="#ed2b2b"/>
    <path id="Path_754" data-name="Path 754" d="M272.752,55.3s.167-.225-.035-.22C272.585,55.084,272.752,55.3,272.752,55.3Z" transform="translate(-270.167 -54.624)" fill="#ff6969"/>
    <path id="Path_755" data-name="Path 755" d="M271.068,55.311s0-.285-.215-.25C270.711,55.084,271.068,55.311,271.068,55.311Z" transform="translate(-268.708 -54.607)" fill="#ff6969"/>
    <path id="Path_756" data-name="Path 756" d="M269.26,55.575s-.139-.259-.3-.208S269.26,55.575,269.26,55.575Z" transform="translate(-267.218 -54.843)" fill="#ff6969"/>
    <path id="Path_757" data-name="Path 757" d="M267.352,56.087s-.165-.308-.38-.216S267.352,56.087,267.352,56.087Z" transform="translate(-265.634 -55.228)" fill="#ff6969"/>
    <path id="Path_758" data-name="Path 758" d="M265.782,57.019s-.262-.322-.5-.163C265.119,56.962,265.782,57.019,265.782,57.019Z" transform="translate(-264.316 -55.978)" fill="#ff6969"/>
    <path id="Path_759" data-name="Path 759" d="M265.037,58.356s-.384-.137-.514-.042S264.763,58.544,265.037,58.356Z" transform="translate(-263.717 -57.128)" fill="#ff6969"/>
    <path id="Path_760" data-name="Path 760" d="M265.343,59.579a.951.951,0,0,0-.4.1c-.063.045,0,.153.127.128A.347.347,0,0,0,265.343,59.579Z" transform="translate(-264.053 -58.143)" fill="#ff6969"/>
    <path id="Path_761" data-name="Path 761" d="M277.162,56.913a.412.412,0,0,1,.276-.1c.156.009.23.113.046.126A1.071,1.071,0,0,1,277.162,56.913Z" transform="translate(-273.715 -55.977)" fill="#ff6969"/>
    <path id="Path_762" data-name="Path 762" d="M268.62,60.567a.867.867,0,0,0-.243.208c-.052.091.149.185.211.02S268.62,60.567,268.62,60.567Z" transform="translate(-266.774 -58.916)" fill="#ff6969"/>
    <path id="Path_763" data-name="Path 763" d="M270.663,60.567a.348.348,0,0,0-.068.228c.007.141.183.175.171,0A.278.278,0,0,0,270.663,60.567Z" transform="translate(-268.531 -58.916)" fill="#ff6969"/>
    <path id="Path_764" data-name="Path 764" d="M272.369,60.4a1.146,1.146,0,0,0,.039.264c.036.114.292.174.188-.027A.444.444,0,0,0,272.369,60.4Z" transform="translate(-269.932 -58.786)" fill="#ff6969"/>
    <path id="Path_765" data-name="Path 765" d="M274.113,60.274a.942.942,0,0,0,.207.292c.136.124.279.03.152-.111A.716.716,0,0,0,274.113,60.274Z" transform="translate(-271.308 -58.687)" fill="#ff6969"/>
    <path id="Path_766" data-name="Path 766" d="M275.636,59.7a1.252,1.252,0,0,0,.3.266c.162.094.325,0,.13-.114A1.32,1.32,0,0,0,275.636,59.7Z" transform="translate(-272.511 -58.237)" fill="#ff6969"/>
    <path id="Path_767" data-name="Path 767" d="M276.761,58.827a1.537,1.537,0,0,0,.448.221c.172.028.282-.161.088-.195A3.7,3.7,0,0,0,276.761,58.827Z" transform="translate(-273.399 -57.554)" fill="#ff6969"/>
    <path id="Path_768" data-name="Path 768" d="M277.276,57.906a1.143,1.143,0,0,1,.372-.06c.14.017.26.114.11.121A2.963,2.963,0,0,1,277.276,57.906Z" transform="translate(-273.805 -56.786)" fill="#ff6969"/>
  </g>
  <g id="Group_183" data-name="Group 183" transform="translate(1.191 5.152)">
    <rect id="Rectangle_51" data-name="Rectangle 51" width="4.786" height="0.267" transform="translate(0 1.302)" fill="#ed2b2b"/>
    <path id="Path_769" data-name="Path 769" d="M213.714,39.714c0,.726-1.071,1.315-2.393,1.315s-2.393-.589-2.393-1.315S210,38.4,211.321,38.4,213.714,38.988,213.714,39.714Z" transform="translate(-208.928 -38.192)" fill="#ed2b2b"/>
    <path id="Path_770" data-name="Path 770" d="M213.714,38.763c0,.727-1.071,1.315-2.393,1.315s-2.393-.589-2.393-1.315,1.071-1.315,2.393-1.315S213.714,38.037,213.714,38.763Z" transform="translate(-208.928 -37.448)" fill="#ff6969"/>
    <path id="Path_771" data-name="Path 771" d="M214.4,39.507c0,.612-.96,1.108-2.143,1.108s-2.143-.5-2.143-1.108.959-1.108,2.143-1.108S214.4,38.9,214.4,39.507Z" transform="translate(-209.863 -38.192)" fill="#ff4343"/>
    <path id="Path_772" data-name="Path 772" d="M211.97,40.523a.652.652,0,0,1-.02-1.2,3.066,3.066,0,0,1,2.068-.275c.307.075-.017.37-.381.4a2.828,2.828,0,0,0-.789.168c-.278.126-.385.315-.376.412C212.489,40.2,212.145,40.517,211.97,40.523Z" transform="translate(-211.003 -38.644)" fill="#ed2b2b"/>
    <path id="Path_773" data-name="Path 773" d="M215.631,41.408c-.221.12-.56.435-.182.55a3.083,3.083,0,0,0,2.2-.18c.583-.284.721-.753.381-1.082-.247-.239-.492-.259-.63-.167-.321.215-.039.6-.663.725A5.392,5.392,0,0,0,215.631,41.408Z" transform="translate(-213.941 -39.819)" fill="#ed2b2b"/>
    <path id="Path_774" data-name="Path 774" d="M220.884,39.765s.167-.225-.035-.22C220.717,39.549,220.884,39.765,220.884,39.765Z" transform="translate(-218.298 -39.089)" fill="#ff6969"/>
    <path id="Path_775" data-name="Path 775" d="M219.2,39.776s0-.285-.215-.25C218.844,39.549,219.2,39.776,219.2,39.776Z" transform="translate(-216.841 -39.072)" fill="#ff6969"/>
    <path id="Path_776" data-name="Path 776" d="M217.392,40.04s-.139-.259-.3-.208S217.392,40.04,217.392,40.04Z" transform="translate(-215.35 -39.308)" fill="#ff6969"/>
    <path id="Path_777" data-name="Path 777" d="M215.484,40.552s-.165-.308-.38-.216S215.484,40.552,215.484,40.552Z" transform="translate(-213.766 -39.693)" fill="#ff6969"/>
    <path id="Path_778" data-name="Path 778" d="M213.914,41.484s-.262-.322-.5-.163C213.252,41.427,213.914,41.484,213.914,41.484Z" transform="translate(-212.448 -40.443)" fill="#ff6969"/>
    <path id="Path_779" data-name="Path 779" d="M213.169,42.821s-.384-.137-.514-.042S212.9,43.009,213.169,42.821Z" transform="translate(-211.849 -41.593)" fill="#ff6969"/>
    <path id="Path_780" data-name="Path 780" d="M213.475,44.044a.951.951,0,0,0-.4.1c-.063.045,0,.153.127.128A.347.347,0,0,0,213.475,44.044Z" transform="translate(-212.185 -42.608)" fill="#ff6969"/>
    <path id="Path_781" data-name="Path 781" d="M225.294,41.379a.414.414,0,0,1,.276-.1c.156.009.23.113.046.126A1.074,1.074,0,0,1,225.294,41.379Z" transform="translate(-221.847 -40.442)" fill="#ff6969"/>
    <path id="Path_782" data-name="Path 782" d="M216.752,45.032a.871.871,0,0,0-.243.208c-.052.091.149.185.211.02S216.752,45.032,216.752,45.032Z" transform="translate(-214.906 -43.381)" fill="#ff6969"/>
    <path id="Path_783" data-name="Path 783" d="M218.8,45.032a.349.349,0,0,0-.068.228c.007.141.183.175.171,0A.279.279,0,0,0,218.8,45.032Z" transform="translate(-216.663 -43.381)" fill="#ff6969"/>
    <path id="Path_784" data-name="Path 784" d="M220.5,44.865a1.146,1.146,0,0,0,.039.264c.036.114.292.174.188-.027A.444.444,0,0,0,220.5,44.865Z" transform="translate(-218.064 -43.251)" fill="#ff6969"/>
    <path id="Path_785" data-name="Path 785" d="M222.245,44.739a.942.942,0,0,0,.207.292c.136.124.279.03.152-.111A.716.716,0,0,0,222.245,44.739Z" transform="translate(-219.44 -43.152)" fill="#ff6969"/>
    <path id="Path_786" data-name="Path 786" d="M223.768,44.164a1.252,1.252,0,0,0,.3.266c.162.094.325,0,.13-.114A1.322,1.322,0,0,0,223.768,44.164Z" transform="translate(-220.643 -42.702)" fill="#ff6969"/>
    <path id="Path_787" data-name="Path 787" d="M224.893,43.292a1.537,1.537,0,0,0,.448.221c.172.028.282-.161.088-.195A3.7,3.7,0,0,0,224.893,43.292Z" transform="translate(-221.531 -42.019)" fill="#ff6969"/>
    <path id="Path_788" data-name="Path 788" d="M225.408,42.371a1.143,1.143,0,0,1,.372-.06c.14.017.26.114.11.121A2.945,2.945,0,0,1,225.408,42.371Z" transform="translate(-221.937 -41.251)" fill="#ff6969"/>
  </g>
  <g id="Group_184" data-name="Group 184" transform="translate(6.448 0.623)">
    <rect id="Rectangle_52" data-name="Rectangle 52" width="4.786" height="0.267" transform="translate(0 1.302)" fill="#ed2b2b"/>
    <path id="Path_789" data-name="Path 789" d="M238.676,18.906c0,.726-1.071,1.315-2.393,1.315s-2.393-.589-2.393-1.315,1.071-1.315,2.393-1.315S238.676,18.18,238.676,18.906Z" transform="translate(-233.89 -17.384)" fill="#ed2b2b"/>
    <path id="Path_790" data-name="Path 790" d="M238.676,17.954c0,.726-1.071,1.315-2.393,1.315s-2.393-.589-2.393-1.315,1.071-1.315,2.393-1.315S238.676,17.228,238.676,17.954Z" transform="translate(-233.89 -16.639)" fill="#ff6969"/>
    <path id="Path_791" data-name="Path 791" d="M239.361,18.7c0,.612-.96,1.108-2.143,1.108s-2.143-.5-2.143-1.108.96-1.108,2.143-1.108S239.361,18.087,239.361,18.7Z" transform="translate(-234.825 -17.384)" fill="#ff4343"/>
    <path id="Path_792" data-name="Path 792" d="M236.931,19.714a.652.652,0,0,1-.019-1.2,3.068,3.068,0,0,1,2.068-.275c.307.076-.017.37-.381.4a2.833,2.833,0,0,0-.789.168c-.278.126-.385.315-.376.412C237.451,19.393,237.106,19.709,236.931,19.714Z" transform="translate(-235.964 -17.836)" fill="#ed2b2b"/>
    <path id="Path_793" data-name="Path 793" d="M240.592,20.6c-.221.12-.56.435-.182.55a3.083,3.083,0,0,0,2.2-.18c.582-.284.721-.752.381-1.081-.247-.239-.492-.26-.63-.167-.321.215-.039.6-.663.725A5.392,5.392,0,0,0,240.592,20.6Z" transform="translate(-238.903 -19.01)" fill="#ed2b2b"/>
    <path id="Path_794" data-name="Path 794" d="M245.846,18.956s.167-.225-.035-.22C245.679,18.74,245.846,18.956,245.846,18.956Z" transform="translate(-243.26 -18.28)" fill="#ff6969"/>
    <path id="Path_795" data-name="Path 795" d="M244.162,18.968s0-.285-.215-.25C243.805,18.74,244.162,18.968,244.162,18.968Z" transform="translate(-241.802 -18.263)" fill="#ff6969"/>
    <path id="Path_796" data-name="Path 796" d="M242.353,19.231s-.14-.259-.3-.208S242.353,19.231,242.353,19.231Z" transform="translate(-240.312 -18.499)" fill="#ff6969"/>
    <path id="Path_797" data-name="Path 797" d="M240.445,19.743s-.165-.308-.38-.216S240.445,19.743,240.445,19.743Z" transform="translate(-238.728 -18.885)" fill="#ff6969"/>
    <path id="Path_798" data-name="Path 798" d="M238.875,20.675s-.262-.322-.5-.163C238.213,20.619,238.875,20.675,238.875,20.675Z" transform="translate(-237.409 -19.635)" fill="#ff6969"/>
    <path id="Path_799" data-name="Path 799" d="M238.13,22.013s-.384-.137-.514-.041S237.857,22.2,238.13,22.013Z" transform="translate(-236.811 -20.784)" fill="#ff6969"/>
    <path id="Path_800" data-name="Path 800" d="M238.437,23.235a.952.952,0,0,0-.4.1c-.063.045,0,.153.127.128A.348.348,0,0,0,238.437,23.235Z" transform="translate(-237.146 -21.799)" fill="#ff6969"/>
    <path id="Path_801" data-name="Path 801" d="M250.255,20.57a.413.413,0,0,1,.276-.1c.156.009.23.113.045.126A1.08,1.08,0,0,1,250.255,20.57Z" transform="translate(-246.808 -19.633)" fill="#ff6969"/>
    <path id="Path_802" data-name="Path 802" d="M241.713,24.223a.872.872,0,0,0-.243.208c-.052.091.149.185.211.02S241.713,24.223,241.713,24.223Z" transform="translate(-239.867 -22.572)" fill="#ff6969"/>
    <path id="Path_803" data-name="Path 803" d="M243.757,24.223a.348.348,0,0,0-.068.228c.006.141.183.175.171,0A.278.278,0,0,0,243.757,24.223Z" transform="translate(-241.625 -22.572)" fill="#ff6969"/>
    <path id="Path_804" data-name="Path 804" d="M245.463,24.056a1.13,1.13,0,0,0,.039.264c.036.114.292.175.188-.027A.444.444,0,0,0,245.463,24.056Z" transform="translate(-243.026 -22.442)" fill="#ff6969"/>
    <path id="Path_805" data-name="Path 805" d="M247.207,23.931a.937.937,0,0,0,.207.292c.136.124.279.03.153-.111A.714.714,0,0,0,247.207,23.931Z" transform="translate(-244.402 -22.344)" fill="#ff6969"/>
    <path id="Path_806" data-name="Path 806" d="M248.73,23.356a1.254,1.254,0,0,0,.3.266c.162.094.325,0,.13-.114A1.315,1.315,0,0,0,248.73,23.356Z" transform="translate(-245.605 -21.894)" fill="#ff6969"/>
    <path id="Path_807" data-name="Path 807" d="M249.855,22.483a1.538,1.538,0,0,0,.448.221c.172.028.282-.161.088-.195A3.7,3.7,0,0,0,249.855,22.483Z" transform="translate(-246.493 -21.21)" fill="#ff6969"/>
    <path id="Path_808" data-name="Path 808" d="M250.369,21.562a1.145,1.145,0,0,1,.372-.06c.14.017.26.114.11.121A2.937,2.937,0,0,1,250.369,21.562Z" transform="translate(-246.898 -20.442)" fill="#ff6969"/>
  </g>
  <g id="Group_185" data-name="Group 185" transform="translate(14.033 1.221)">
    <rect id="Rectangle_53" data-name="Rectangle 53" width="4.786" height="0.267" transform="translate(0 1.302)" fill="#ed2b2b"/>
    <path id="Path_809" data-name="Path 809" d="M274.69,21.653c0,.726-1.071,1.315-2.393,1.315s-2.393-.589-2.393-1.315,1.071-1.315,2.393-1.315S274.69,20.927,274.69,21.653Z" transform="translate(-269.904 -20.131)" fill="#ed2b2b"/>
    <path id="Path_810" data-name="Path 810" d="M274.69,20.7c0,.726-1.071,1.315-2.393,1.315S269.9,21.429,269.9,20.7s1.071-1.315,2.393-1.315S274.69,19.976,274.69,20.7Z" transform="translate(-269.904 -19.387)" fill="#ff6969"/>
    <path id="Path_811" data-name="Path 811" d="M275.376,21.446c0,.612-.96,1.108-2.143,1.108s-2.143-.5-2.143-1.108.96-1.108,2.143-1.108S275.376,20.834,275.376,21.446Z" transform="translate(-270.839 -20.131)" fill="#ff4343"/>
    <path id="Path_812" data-name="Path 812" d="M272.946,22.462a.652.652,0,0,1-.02-1.2,3.068,3.068,0,0,1,2.068-.275c.307.076-.017.37-.381.4a2.836,2.836,0,0,0-.789.168c-.278.126-.385.315-.376.412C273.465,22.141,273.12,22.457,272.946,22.462Z" transform="translate(-271.979 -20.584)" fill="#ed2b2b"/>
    <path id="Path_813" data-name="Path 813" d="M276.607,23.348c-.221.12-.56.435-.182.55a3.084,3.084,0,0,0,2.2-.18c.583-.284.721-.752.381-1.082-.247-.239-.492-.259-.629-.167-.321.215-.039.6-.663.725A5.379,5.379,0,0,0,276.607,23.348Z" transform="translate(-274.917 -21.758)" fill="#ed2b2b"/>
    <path id="Path_814" data-name="Path 814" d="M281.86,21.7s.167-.225-.035-.22C281.693,21.488,281.86,21.7,281.86,21.7Z" transform="translate(-279.275 -21.028)" fill="#ff6969"/>
    <path id="Path_815" data-name="Path 815" d="M280.176,21.716s0-.285-.215-.25C279.819,21.488,280.176,21.716,280.176,21.716Z" transform="translate(-277.816 -21.011)" fill="#ff6969"/>
    <path id="Path_816" data-name="Path 816" d="M278.368,21.979s-.139-.259-.3-.208S278.368,21.979,278.368,21.979Z" transform="translate(-276.326 -21.247)" fill="#ff6969"/>
    <path id="Path_817" data-name="Path 817" d="M276.46,22.491s-.165-.308-.38-.216S276.46,22.491,276.46,22.491Z" transform="translate(-274.742 -21.632)" fill="#ff6969"/>
    <path id="Path_818" data-name="Path 818" d="M274.89,23.423s-.262-.322-.5-.163C274.227,23.366,274.89,23.423,274.89,23.423Z" transform="translate(-273.424 -22.382)" fill="#ff6969"/>
    <path id="Path_819" data-name="Path 819" d="M274.145,24.761s-.384-.137-.514-.041S273.871,24.948,274.145,24.761Z" transform="translate(-272.825 -23.532)" fill="#ff6969"/>
    <path id="Path_820" data-name="Path 820" d="M274.451,25.983a.95.95,0,0,0-.4.1c-.063.045,0,.153.127.128A.347.347,0,0,0,274.451,25.983Z" transform="translate(-273.161 -24.547)" fill="#ff6969"/>
    <path id="Path_821" data-name="Path 821" d="M286.27,23.318a.414.414,0,0,1,.276-.1c.156.009.23.113.046.126A1.074,1.074,0,0,1,286.27,23.318Z" transform="translate(-282.823 -22.381)" fill="#ff6969"/>
    <path id="Path_822" data-name="Path 822" d="M277.728,26.971a.87.87,0,0,0-.243.208c-.052.091.149.185.211.02S277.728,26.971,277.728,26.971Z" transform="translate(-275.882 -25.32)" fill="#ff6969"/>
    <path id="Path_823" data-name="Path 823" d="M279.771,26.971a.348.348,0,0,0-.068.228c.007.141.183.175.171,0A.279.279,0,0,0,279.771,26.971Z" transform="translate(-277.639 -25.32)" fill="#ff6969"/>
    <path id="Path_824" data-name="Path 824" d="M281.477,26.8a1.146,1.146,0,0,0,.039.264c.036.114.292.174.188-.027A.444.444,0,0,0,281.477,26.8Z" transform="translate(-279.04 -25.19)" fill="#ff6969"/>
    <path id="Path_825" data-name="Path 825" d="M283.221,26.678a.943.943,0,0,0,.207.292c.136.124.279.03.152-.111A.716.716,0,0,0,283.221,26.678Z" transform="translate(-280.416 -25.091)" fill="#ff6969"/>
    <path id="Path_826" data-name="Path 826" d="M284.744,26.1a1.252,1.252,0,0,0,.3.266c.162.094.325,0,.13-.114A1.317,1.317,0,0,0,284.744,26.1Z" transform="translate(-281.619 -24.641)" fill="#ff6969"/>
    <path id="Path_827" data-name="Path 827" d="M285.869,25.231a1.537,1.537,0,0,0,.448.221c.172.028.282-.161.088-.195A3.7,3.7,0,0,0,285.869,25.231Z" transform="translate(-282.507 -23.958)" fill="#ff6969"/>
    <path id="Path_828" data-name="Path 828" d="M286.384,24.31a1.143,1.143,0,0,1,.372-.06c.14.017.26.114.11.121A2.937,2.937,0,0,1,286.384,24.31Z" transform="translate(-282.913 -23.19)" fill="#ff6969"/>
  </g>
  <g id="Group_186" data-name="Group 186" transform="translate(17.366 5.876)">
    <rect id="Rectangle_54" data-name="Rectangle 54" width="4.786" height="0.267" transform="translate(0 1.302)" fill="#ed2b2b"/>
    <path id="Path_829" data-name="Path 829" d="M290.517,43.041c0,.726-1.071,1.315-2.393,1.315s-2.393-.589-2.393-1.315,1.071-1.315,2.393-1.315S290.517,42.315,290.517,43.041Z" transform="translate(-285.731 -41.519)" fill="#ed2b2b"/>
    <path id="Path_830" data-name="Path 830" d="M290.517,42.09c0,.727-1.071,1.315-2.393,1.315s-2.393-.589-2.393-1.315,1.071-1.315,2.393-1.315S290.517,41.364,290.517,42.09Z" transform="translate(-285.731 -40.775)" fill="#ff6969"/>
    <path id="Path_831" data-name="Path 831" d="M291.2,42.834c0,.612-.96,1.108-2.143,1.108s-2.143-.5-2.143-1.108.96-1.108,2.143-1.108S291.2,42.222,291.2,42.834Z" transform="translate(-286.666 -41.519)" fill="#ff4343"/>
    <path id="Path_832" data-name="Path 832" d="M288.772,43.85a.652.652,0,0,1-.02-1.2,3.068,3.068,0,0,1,2.069-.275c.307.076-.017.37-.381.4a2.833,2.833,0,0,0-.789.168c-.278.126-.385.315-.376.412C289.292,43.529,288.947,43.845,288.772,43.85Z" transform="translate(-287.805 -41.972)" fill="#ed2b2b"/>
    <path id="Path_833" data-name="Path 833" d="M292.433,44.736c-.221.12-.56.435-.182.55a3.083,3.083,0,0,0,2.2-.18c.582-.284.721-.752.381-1.081-.247-.239-.491-.26-.63-.167-.321.215-.039.6-.663.725A5.378,5.378,0,0,0,292.433,44.736Z" transform="translate(-290.744 -43.146)" fill="#ed2b2b"/>
    <path id="Path_834" data-name="Path 834" d="M297.686,43.092s.167-.225-.035-.22C297.52,42.876,297.686,43.092,297.686,43.092Z" transform="translate(-295.101 -42.416)" fill="#ff6969"/>
    <path id="Path_835" data-name="Path 835" d="M296,43.1s0-.285-.215-.25C295.646,42.876,296,43.1,296,43.1Z" transform="translate(-293.643 -42.399)" fill="#ff6969"/>
    <path id="Path_836" data-name="Path 836" d="M294.194,43.368s-.14-.259-.3-.208S294.194,43.368,294.194,43.368Z" transform="translate(-292.153 -42.635)" fill="#ff6969"/>
    <path id="Path_837" data-name="Path 837" d="M292.286,43.879s-.165-.308-.38-.216S292.286,43.879,292.286,43.879Z" transform="translate(-290.569 -43.02)" fill="#ff6969"/>
    <path id="Path_838" data-name="Path 838" d="M290.716,44.811s-.262-.322-.5-.163C290.054,44.755,290.716,44.811,290.716,44.811Z" transform="translate(-289.25 -43.771)" fill="#ff6969"/>
    <path id="Path_839" data-name="Path 839" d="M289.971,46.149s-.384-.137-.514-.041S289.7,46.336,289.971,46.149Z" transform="translate(-288.651 -44.921)" fill="#ff6969"/>
    <path id="Path_840" data-name="Path 840" d="M290.278,47.372a.95.95,0,0,0-.4.1c-.063.045,0,.153.127.128A.348.348,0,0,0,290.278,47.372Z" transform="translate(-288.987 -45.936)" fill="#ff6969"/>
    <path id="Path_841" data-name="Path 841" d="M302.1,44.706a.413.413,0,0,1,.276-.1c.156.009.23.113.046.126A1.071,1.071,0,0,1,302.1,44.706Z" transform="translate(-298.649 -43.769)" fill="#ff6969"/>
    <path id="Path_842" data-name="Path 842" d="M293.554,48.359a.872.872,0,0,0-.243.208c-.052.091.149.185.211.02S293.554,48.359,293.554,48.359Z" transform="translate(-291.708 -46.708)" fill="#ff6969"/>
    <path id="Path_843" data-name="Path 843" d="M295.6,48.359a.348.348,0,0,0-.068.228c.006.141.183.175.171,0A.278.278,0,0,0,295.6,48.359Z" transform="translate(-293.466 -46.708)" fill="#ff6969"/>
    <path id="Path_844" data-name="Path 844" d="M297.3,48.192a1.132,1.132,0,0,0,.039.264c.036.114.292.174.188-.027A.444.444,0,0,0,297.3,48.192Z" transform="translate(-294.867 -46.578)" fill="#ff6969"/>
    <path id="Path_845" data-name="Path 845" d="M299.048,48.066a.94.94,0,0,0,.207.292c.136.124.279.03.153-.111A.715.715,0,0,0,299.048,48.066Z" transform="translate(-296.243 -46.479)" fill="#ff6969"/>
    <path id="Path_846" data-name="Path 846" d="M300.571,47.492a1.253,1.253,0,0,0,.3.266c.162.094.324,0,.13-.114A1.315,1.315,0,0,0,300.571,47.492Z" transform="translate(-297.446 -46.03)" fill="#ff6969"/>
    <path id="Path_847" data-name="Path 847" d="M301.7,46.618a1.538,1.538,0,0,0,.448.221c.172.028.282-.161.088-.195A3.7,3.7,0,0,0,301.7,46.618Z" transform="translate(-298.334 -45.346)" fill="#ff6969"/>
    <path id="Path_848" data-name="Path 848" d="M302.21,45.7a1.144,1.144,0,0,1,.372-.06c.14.017.26.114.11.121A2.938,2.938,0,0,1,302.21,45.7Z" transform="translate(-298.739 -44.578)" fill="#ff6969"/>
  </g>
  <g id="Group_187" data-name="Group 187" transform="translate(8.969 5.659)">
    <rect id="Rectangle_55" data-name="Rectangle 55" width="4.786" height="0.267" transform="translate(0 1.302)" fill="#ed2b2b"/>
    <path id="Path_849" data-name="Path 849" d="M250.646,42.044c0,.727-1.071,1.315-2.393,1.315s-2.393-.589-2.393-1.315,1.071-1.315,2.393-1.315S250.646,41.318,250.646,42.044Z" transform="translate(-245.861 -40.522)" fill="#ed2b2b"/>
    <path id="Path_850" data-name="Path 850" d="M250.646,41.093c0,.726-1.071,1.315-2.393,1.315s-2.393-.589-2.393-1.315,1.071-1.315,2.393-1.315S250.646,40.367,250.646,41.093Z" transform="translate(-245.861 -39.778)" fill="#ff6969"/>
    <ellipse id="Ellipse_32" data-name="Ellipse 32" cx="2.143" cy="1.108" rx="2.143" ry="1.108" transform="translate(0.25 0.207)" fill="#ff4343"/>
    <path id="Path_851" data-name="Path 851" d="M248.9,42.853a.652.652,0,0,1-.019-1.2,3.069,3.069,0,0,1,2.068-.275c.307.076-.017.37-.381.4a2.831,2.831,0,0,0-.789.168c-.278.126-.385.315-.376.412C249.422,42.531,249.077,42.847,248.9,42.853Z" transform="translate(-247.935 -40.974)" fill="#ed2b2b"/>
    <path id="Path_852" data-name="Path 852" d="M252.563,43.738c-.221.12-.56.435-.182.55a3.083,3.083,0,0,0,2.2-.18c.582-.284.721-.752.381-1.081-.247-.239-.492-.26-.63-.167-.321.215-.039.6-.663.725A5.4,5.4,0,0,0,252.563,43.738Z" transform="translate(-250.874 -42.148)" fill="#ed2b2b"/>
    <path id="Path_853" data-name="Path 853" d="M257.817,42.1s.167-.224-.035-.219C257.65,41.879,257.817,42.1,257.817,42.1Z" transform="translate(-255.231 -41.419)" fill="#ff6969"/>
    <path id="Path_854" data-name="Path 854" d="M256.133,42.106s0-.285-.215-.25C255.776,41.879,256.133,42.106,256.133,42.106Z" transform="translate(-253.773 -41.402)" fill="#ff6969"/>
    <path id="Path_855" data-name="Path 855" d="M254.325,42.37s-.14-.259-.3-.208S254.325,42.37,254.325,42.37Z" transform="translate(-252.283 -41.638)" fill="#ff6969"/>
    <path id="Path_856" data-name="Path 856" d="M252.416,42.882s-.165-.308-.38-.216S252.416,42.882,252.416,42.882Z" transform="translate(-250.699 -42.023)" fill="#ff6969"/>
    <path id="Path_857" data-name="Path 857" d="M250.846,43.814s-.262-.322-.5-.163C250.184,43.757,250.846,43.814,250.846,43.814Z" transform="translate(-249.38 -42.773)" fill="#ff6969"/>
    <path id="Path_858" data-name="Path 858" d="M250.1,45.151s-.384-.137-.514-.042S249.828,45.339,250.1,45.151Z" transform="translate(-248.781 -43.923)" fill="#ff6969"/>
    <path id="Path_859" data-name="Path 859" d="M250.408,46.374a.948.948,0,0,0-.4.1c-.063.045,0,.153.127.127A.348.348,0,0,0,250.408,46.374Z" transform="translate(-249.117 -44.938)" fill="#ff6969"/>
    <path id="Path_860" data-name="Path 860" d="M262.226,43.708a.413.413,0,0,1,.276-.1c.156.009.23.113.045.126A1.071,1.071,0,0,1,262.226,43.708Z" transform="translate(-258.779 -42.772)" fill="#ff6969"/>
    <path id="Path_861" data-name="Path 861" d="M253.684,47.362a.874.874,0,0,0-.243.208c-.052.091.149.185.211.02S253.684,47.362,253.684,47.362Z" transform="translate(-251.838 -45.711)" fill="#ff6969"/>
    <path id="Path_862" data-name="Path 862" d="M255.728,47.362a.348.348,0,0,0-.068.228c.007.141.183.174.171,0A.278.278,0,0,0,255.728,47.362Z" transform="translate(-253.596 -45.711)" fill="#ff6969"/>
    <path id="Path_863" data-name="Path 863" d="M257.434,47.2a1.132,1.132,0,0,0,.039.264c.036.114.292.174.188-.027A.445.445,0,0,0,257.434,47.2Z" transform="translate(-254.997 -45.581)" fill="#ff6969"/>
    <path id="Path_864" data-name="Path 864" d="M259.178,47.069a.939.939,0,0,0,.207.292c.136.124.279.03.153-.111A.716.716,0,0,0,259.178,47.069Z" transform="translate(-256.373 -45.482)" fill="#ff6969"/>
    <path id="Path_865" data-name="Path 865" d="M260.7,46.494a1.248,1.248,0,0,0,.3.266c.162.094.325,0,.13-.114A1.321,1.321,0,0,0,260.7,46.494Z" transform="translate(-257.576 -45.032)" fill="#ff6969"/>
    <path id="Path_866" data-name="Path 866" d="M261.826,45.622a1.533,1.533,0,0,0,.448.22c.172.028.282-.161.088-.194A3.7,3.7,0,0,0,261.826,45.622Z" transform="translate(-258.464 -44.349)" fill="#ff6969"/>
    <path id="Path_867" data-name="Path 867" d="M262.34,44.7a1.144,1.144,0,0,1,.372-.06c.14.017.26.114.11.121A2.948,2.948,0,0,1,262.34,44.7Z" transform="translate(-258.869 -43.581)" fill="#ff6969"/>
  </g>
  <g id="Group_188" data-name="Group 188" transform="translate(14.525 7.745)">
    <rect id="Rectangle_56" data-name="Rectangle 56" width="4.21" height="0.235" transform="translate(0 1.145)" fill="#5e8e11"/>
    <path id="Path_868" data-name="Path 868" d="M276.454,51.354c0,.639-.942,1.157-2.1,1.157s-2.1-.518-2.1-1.157.942-1.157,2.1-1.157S276.454,50.715,276.454,51.354Z" transform="translate(-272.244 -50.015)" fill="#5e8e11"/>
    <path id="Path_869" data-name="Path 869" d="M276.454,50.517c0,.639-.942,1.157-2.1,1.157s-2.1-.518-2.1-1.157.942-1.157,2.1-1.157S276.454,49.878,276.454,50.517Z" transform="translate(-272.244 -49.36)" fill="#bed134"/>
    <path id="Path_870" data-name="Path 870" d="M277.057,51.172c0,.538-.844.975-1.885.975s-1.886-.437-1.886-.975.844-.975,1.886-.975S277.057,50.633,277.057,51.172Z" transform="translate(-273.067 -50.015)" fill="#71aa21"/>
    <path id="Path_871" data-name="Path 871" d="M276.242,52.441a1.218,1.218,0,0,0-.923-.51c-.7.056-.606.314-.42.51S275.68,52.6,276.242,52.441Z" transform="translate(-274.234 -51.369)" fill="#5e8e11"/>
    <path id="Path_872" data-name="Path 872" d="M282.529,52.669a1.763,1.763,0,0,1,1-.437c.541,0,.572.246.39.447C283.7,52.926,283.091,52.826,282.529,52.669Z" transform="translate(-280.363 -51.607)" fill="#5e8e11"/>
    <path id="Path_873" data-name="Path 873" d="M277.669,54.676s-.768.188-1,.275-.029.42.456.425C277.757,55.382,277.669,54.676,277.669,54.676Z" transform="translate(-275.661 -53.519)" fill="#5e8e11"/>
    <path id="Path_874" data-name="Path 874" d="M282.308,54.676a8.552,8.552,0,0,1,1,.275c.279.129-.109.42-.595.425C282.081,55.382,282.308,54.676,282.308,54.676Z" transform="translate(-280.157 -53.519)" fill="#5e8e11"/>
    <path id="Path_875" data-name="Path 875" d="M280.709,51.354a3.691,3.691,0,0,1-.392-.409c-.07-.114.087-.271.453-.273.505,0,.548.15.379.341A1.932,1.932,0,0,1,280.709,51.354Z" transform="translate(-278.604 -50.386)" fill="#5e8e11"/>
  </g>
  <path id="Path_876" data-name="Path 876" d="M237.969,33.022a5.407,5.407,0,0,0-.108,1.042c.108.72.907.568.907.568A17.075,17.075,0,0,0,237.969,33.022Z" transform="translate(-230.571 -28.833)" fill="#71aa21"/>
  <g id="Group_189" data-name="Group 189" transform="translate(3.407 3.584)">
    <path id="Path_877" data-name="Path 877" d="M221.445,31.252h0s0,0,0,0a.308.308,0,0,0,0-.069,1.03,1.03,0,0,0-.77-.893.921.921,0,0,0-1.192.6,1.749,1.749,0,0,0-.028.316.757.757,0,0,0,.122.222,1.515,1.515,0,0,0,1.36.266C221.248,31.607,221.428,31.437,221.445,31.252Z" transform="translate(-219.452 -30.242)" fill="#344144"/>
    <path id="Path_878" data-name="Path 878" d="M224.189,31.5c-.036.139-.25.2-.477.137s-.383-.227-.346-.366.25-.2.477-.136S224.225,31.357,224.189,31.5Z" transform="translate(-222.537 -30.917)" fill="#fff" opacity="0.5"/>
  </g>
  <g id="Group_190" data-name="Group 190" transform="translate(15.473 4.189)">
    <path id="Path_879" data-name="Path 879" d="M278.736,34.031h0s0,0,0,0a.306.306,0,0,0,0-.069,1.03,1.03,0,0,0-.77-.893.921.921,0,0,0-1.192.6,1.77,1.77,0,0,0-.028.316.76.76,0,0,0,.122.223,1.516,1.516,0,0,0,1.36.266C278.539,34.386,278.72,34.216,278.736,34.031Z" transform="translate(-276.744 -33.022)" fill="#344144"/>
    <path id="Path_880" data-name="Path 880" d="M281.48,34.275c-.036.139-.25.2-.477.136s-.383-.227-.346-.366.25-.2.477-.136S281.516,34.136,281.48,34.275Z" transform="translate(-279.828 -33.696)" fill="#fff" opacity="0.5"/>
  </g>
  <g id="Group_191" data-name="Group 191" transform="translate(20.001 6.824)">
    <path id="Path_881" data-name="Path 881" d="M300.238,46.137h0s0,0,0,0a.306.306,0,0,0,0-.069,1.031,1.031,0,0,0-.77-.893.921.921,0,0,0-1.192.6,1.758,1.758,0,0,0-.028.316.758.758,0,0,0,.122.223,1.516,1.516,0,0,0,1.36.266C300.041,46.492,300.221,46.322,300.238,46.137Z" transform="translate(-298.245 -45.128)" fill="#344144"/>
    <path id="Path_882" data-name="Path 882" d="M302.982,46.381c-.036.139-.25.2-.477.136s-.383-.227-.346-.366.25-.2.477-.137S303.018,46.242,302.982,46.381Z" transform="translate(-301.33 -45.802)" fill="#fff" opacity="0.5"/>
  </g>
  <g id="Group_192" data-name="Group 192" transform="translate(19.582 4.681)">
    <path id="Path_883" data-name="Path 883" d="M296.256,36.29h0a.024.024,0,0,0,0,0,.32.32,0,0,1,0-.069,1.03,1.03,0,0,1,.77-.893.921.921,0,0,1,1.192.6,1.77,1.77,0,0,1,.028.316.764.764,0,0,1-.122.223,1.516,1.516,0,0,1-1.36.266C296.453,36.645,296.273,36.475,296.256,36.29Z" transform="translate(-296.255 -35.281)" fill="#344144"/>
    <path id="Path_884" data-name="Path 884" d="M297.858,36.534c.036.139.25.2.477.136s.383-.227.346-.366-.25-.2-.477-.136S297.822,36.4,297.858,36.534Z" transform="translate(-297.516 -35.955)" fill="#fff" opacity="0.5"/>
  </g>
  <g id="Group_193" data-name="Group 193" transform="translate(4.195 8.179)">
    <path id="Path_885" data-name="Path 885" d="M223.194,52.364h0a.023.023,0,0,1,0,0,.32.32,0,0,1,0-.07,1.031,1.031,0,0,1,.77-.893.921.921,0,0,1,1.192.6,1.726,1.726,0,0,1,.028.316.757.757,0,0,1-.122.223,1.516,1.516,0,0,1-1.36.266C223.391,52.719,223.21,52.549,223.194,52.364Z" transform="translate(-223.192 -51.354)" fill="#344144"/>
    <path id="Path_886" data-name="Path 886" d="M224.8,52.607c.036.139.25.2.477.136s.382-.227.346-.366-.25-.2-.477-.137S224.76,52.469,224.8,52.607Z" transform="translate(-224.454 -52.029)" fill="#fff" opacity="0.5"/>
  </g>
  <g id="Group_194" data-name="Group 194" transform="translate(13.34 1.546)">
    <path id="Path_887" data-name="Path 887" d="M266.615,21.888h0a.021.021,0,0,1,0,0,.312.312,0,0,1,0-.07,1.03,1.03,0,0,1,.77-.893.921.921,0,0,1,1.192.6,1.733,1.733,0,0,1,.028.316.754.754,0,0,1-.122.223,1.516,1.516,0,0,1-1.36.266C266.813,22.243,266.632,22.073,266.615,21.888Z" transform="translate(-266.614 -20.878)" fill="#344144"/>
    <path id="Path_888" data-name="Path 888" d="M268.217,22.131c.036.139.25.2.477.137s.383-.227.346-.366-.25-.2-.477-.137S268.181,21.993,268.217,22.131Z" transform="translate(-267.876 -21.553)" fill="#fff" opacity="0.5"/>
  </g>
  <g id="Group_195" data-name="Group 195" transform="translate(10.365 8.024)">
    <path id="Path_889" data-name="Path 889" d="M252.49,51.652h0v0a.321.321,0,0,1,0-.069,1.03,1.03,0,0,1,.77-.893.921.921,0,0,1,1.192.6,1.75,1.75,0,0,1,.028.316.767.767,0,0,1-.122.222,1.516,1.516,0,0,1-1.36.266C252.687,52.007,252.507,51.837,252.49,51.652Z" transform="translate(-252.489 -50.643)" fill="#344144"/>
    <path id="Path_890" data-name="Path 890" d="M254.092,51.9c.036.139.25.2.477.136s.382-.227.346-.366-.25-.2-.477-.136S254.056,51.757,254.092,51.9Z" transform="translate(-253.75 -51.317)" fill="#fff" opacity="0.5"/>
  </g>
  <g id="Group_196" data-name="Group 196" transform="translate(7.686 4.349)">
    <path id="Path_891" data-name="Path 891" d="M239.771,34.766h0a.021.021,0,0,1,0,0,.309.309,0,0,1,0-.07,1.03,1.03,0,0,1,.77-.893.921.921,0,0,1,1.192.6,1.733,1.733,0,0,1,.028.316.757.757,0,0,1-.122.223,1.516,1.516,0,0,1-1.36.266C239.968,35.121,239.788,34.951,239.771,34.766Z" transform="translate(-239.77 -33.756)" fill="#344144"/>
    <path id="Path_892" data-name="Path 892" d="M241.373,35.009c.036.139.25.2.477.137s.382-.227.346-.366-.25-.2-.477-.137S241.337,34.871,241.373,35.009Z" transform="translate(-241.031 -34.431)" fill="#fff" opacity="0.5"/>
  </g>
  <path id="Path_893" data-name="Path 893" d="M275.139,44.766s-.616-.609-1.025-.324a1.578,1.578,0,0,0-.549.643S274.7,45.162,275.139,44.766Z" transform="translate(-258.761 -37.708)" fill="#71aa21"/>
  <path id="Path_894" data-name="Path 894" d="M228.709,35.255a1.066,1.066,0,0,0-.6-.629,1.017,1.017,0,0,0-1.169.7c-.1.25-.174.47.052.657a.6.6,0,0,0,.4.1,2.352,2.352,0,0,1,.647.151.646.646,0,0,0,.742-.151C228.936,35.864,228.8,35.483,228.709,35.255Z" transform="translate(-221.879 -30.059)" fill="#ffe3a6"/>
  <path id="Path_895" data-name="Path 895" d="M236.37,24.045a1.055,1.055,0,0,0-1.014.207.406.406,0,0,0-.09.5,1.021,1.021,0,0,0,.565.343.715.715,0,0,0,.6-.084A.582.582,0,0,0,236.37,24.045Z" transform="translate(-228.489 -21.759)" fill="#ffe3a6"/>
  <path id="Path_896" data-name="Path 896" d="M250.371,24.387a1.31,1.31,0,0,0-.812.052c-.346.128-.588.483-.963.514a.163.163,0,0,0-.024.006.458.458,0,0,0-.421.109.2.2,0,0,0-.049.191,1.448,1.448,0,0,0,1.227.763,3.851,3.851,0,0,0,.946-.3.914.914,0,0,0,.575-.42A.656.656,0,0,0,250.371,24.387Z" transform="translate(-238.656 -22.044)" fill="#ffe3a6"/>
  <path id="Path_897" data-name="Path 897" d="M267.411,27.436c-.4-.388-1.3-.037-1.765.146-.247.1-.479.263-.245.535a2.159,2.159,0,0,0,.8.388c.238.1.46.249.668.041a2.877,2.877,0,0,1,.337-.326.867.867,0,0,0,.249-.231A.436.436,0,0,0,267.411,27.436Z" transform="translate(-252.24 -24.326)" fill="#ffe3a6"/>
  <path id="Path_898" data-name="Path 898" d="M260.379,32.263c-.234-.166-.4-.3-.562-.3a.491.491,0,0,0-.478.334c-.155.543.585.808.963.578C260.488,32.757,260.6,32.419,260.379,32.263Z" transform="translate(-247.514 -28.001)" fill="#ffe3a6"/>
  <path id="Path_899" data-name="Path 899" d="M236.8,48.186c-.312-.349-.719-.024-1.055.118a.771.771,0,0,0-.238-.156,5.92,5.92,0,0,1-.923-.258c-.2-.12-.351-.3-.6-.3a1.155,1.155,0,0,0-.711.653.335.335,0,0,0,.21.3c.148.082.217.031.334.187a1.208,1.208,0,0,1,.12.3c.135.349.332.684.746.654a1.817,1.817,0,0,0,.728-.331,3.133,3.133,0,0,0,.319-.2,1.471,1.471,0,0,0,.721-.01C236.808,49.023,237.1,48.525,236.8,48.186Z" transform="translate(-226.952 -40.227)" fill="#ffe3a6"/>
  <path id="Path_900" data-name="Path 900" d="M239.828,42.057c-.23-.307-.894-.372-1.094-.028-.237.409.158.663.318.749a.741.741,0,0,0,.632.113A.553.553,0,0,0,239.828,42.057Z" transform="translate(-231.208 -35.699)" fill="#ffe3a6"/>
  <path id="Path_901" data-name="Path 901" d="M280.543,43.991a1.108,1.108,0,0,0-1.109.339.759.759,0,0,0,.55,1.177c.45.077,1.38-.129,1.459-.7C281.516,44.27,281,44.053,280.543,43.991Z" transform="translate(-263.286 -37.399)" fill="#ffe3a6"/>
  <path id="Path_902" data-name="Path 902" d="M288.155,33.915a2.173,2.173,0,0,0-1,.613.577.577,0,0,0,.052.642.986.986,0,0,0,1.362-.14A.675.675,0,0,0,288.155,33.915Z" transform="translate(-269.436 -29.531)" fill="#ffe3a6"/>
  <path id="Path_903" data-name="Path 903" d="M287.2,29.655a.544.544,0,0,0-.358-.307c-.132-.035-.773.135-.8.318-.061.388.345.613.661.619C287.041,30.292,287.365,30.026,287.2,29.655Z" transform="translate(-268.606 -25.955)" fill="#ffe3a6"/>
  <path id="Path_904" data-name="Path 904" d="M272.55,37.473c-.307.348.159.737.472.792s.841-.118.839-.539C273.86,37.321,272.708,37.295,272.55,37.473Z" transform="translate(-257.881 -32.233)" fill="#ffe3a6"/>
  <path id="Path_905" data-name="Path 905" d="M267.143,49.155c-.082-.419-.476-.4-.781-.478-.479-.123-.762-.625-1.277-.6a2.862,2.862,0,0,0-1.347.6.568.568,0,0,0-.241.7c.158.336,1.3.6,1.546.606a4.211,4.211,0,0,0,1.752-.209A.6.6,0,0,0,267.143,49.155Z" transform="translate(-250.774 -40.614)" fill="#ffe3a6"/>
  <path id="Path_906" data-name="Path 906" d="M247.839,37.364a.827.827,0,0,0-.831-.528.88.88,0,0,0-.491.173c-.218.165-.262.388-.558.4-.177.009-.309-.063-.467.062a.4.4,0,0,0-.141.367,1.579,1.579,0,0,0,.779.747,2.022,2.022,0,0,0,1.417-.166A.96.96,0,0,0,247.839,37.364Z" transform="translate(-236.486 -31.816)" fill="#ffe3a6"/>
  <path id="Path_907" data-name="Path 907" d="M217.039,38.2a.185.185,0,0,0,.078.2.5.5,0,0,0,.53.089.406.406,0,0,0,.22-.387C217.833,37.69,217.172,37.7,217.039,38.2Z" transform="translate(-214.135 -32.577)" fill="#ffe3a6"/>
  <path id="Path_908" data-name="Path 908" d="M223.038,42.239a.559.559,0,0,0-.243-.265c-.1-.074-.6-.19-.615.153a.619.619,0,0,0,.434.511A.338.338,0,0,0,223.038,42.239Z" transform="translate(-218.198 -35.774)" fill="#ffe3a6"/>
  <path id="Path_909" data-name="Path 909" d="M245.784,23.352a.542.542,0,0,0-.739.416.151.151,0,0,0,.1.185.594.594,0,0,0,.712-.41A.174.174,0,0,0,245.784,23.352Z" transform="translate(-236.243 -21.232)" fill="#ffe3a6"/>
  <path id="Path_910" data-name="Path 910" d="M237.046,31.527a1.21,1.21,0,0,0-.715.2c-.079.087-.158.323-.065.388a.717.717,0,0,0,.767.026.412.412,0,0,0,.228-.3A.314.314,0,0,0,237.046,31.527Z" transform="translate(-229.284 -27.657)" fill="#ffe3a6"/>
  <path id="Path_911" data-name="Path 911" d="M245.8,56.294a.413.413,0,0,0-.5.095,1.094,1.094,0,0,0-.279.454.154.154,0,0,0,.076.137c.262.118.8.078.89-.271A.393.393,0,0,0,245.8,56.294Z" transform="translate(-236.229 -47.001)" fill="#ffe3a6"/>
  <path id="Path_912" data-name="Path 912" d="M292.95,44.2c-.064-.249-1.082-.038-1.107.191-.034.313.424.377.635.362A.481.481,0,0,0,292.95,44.2Z" transform="translate(-273.188 -37.49)" fill="#ffe3a6"/>
  <path id="Path_913" data-name="Path 913" d="M229.448,36.024c-.156-.229-.653.139-.652.366,0,.183.132.252.287.281.2.037.4.087.539-.1C229.75,36.41,229.555,36.182,229.448,36.024Z" transform="translate(-223.421 -31.125)" fill="#fff" opacity="0.5"/>
  <path id="Path_914" data-name="Path 914" d="M253.574,25.6a.827.827,0,0,0-.851.076c-.012,0-.024.005-.036.01a1.549,1.549,0,0,0-.213.118c-.082.047-.182.046-.257.091a.163.163,0,0,0-.087.184c.06.291.4.134.526.019a.768.768,0,0,1,.665-.263c.114.027.184.042.276-.047A.123.123,0,0,0,253.574,25.6Z" transform="translate(-241.837 -22.962)" fill="#fff" opacity="0.5"/>
  <path id="Path_915" data-name="Path 915" d="M237.735,24.89a.336.336,0,0,0-.556-.013.245.245,0,0,0-.014.039.362.362,0,0,0-.114.056.12.12,0,0,0-.023.183c.155.129.386.411.61.3A.38.38,0,0,0,237.735,24.89Z" transform="translate(-229.892 -22.35)" fill="#fff" opacity="0.5"/>
  <path id="Path_916" data-name="Path 916" d="M251.049,37.849a.318.318,0,0,0-.167.074.436.436,0,0,0-.229.088.327.327,0,0,0-.109.4c.048.082.116.083.189.123.049.027.086.082.139.111a.382.382,0,0,0,.453-.081C251.55,38.318,251.417,37.805,251.049,37.849Z" transform="translate(-240.563 -32.607)" fill="#fff" opacity="0.5"/>
  <path id="Path_917" data-name="Path 917" d="M247.965,41.115c-.04-.172-.233-.235-.38-.261a.142.142,0,0,0-.147.061c-.065.018-.1.132-.077.192a.518.518,0,0,0,.335.277A.223.223,0,0,0,247.965,41.115Z" transform="translate(-238.071 -34.958)" fill="#fff" opacity="0.5"/>
  <path id="Path_918" data-name="Path 918" d="M236.854,49.662a.3.3,0,0,0-.174-.032c-.164-.136-.505-.295-.564-.034a.2.2,0,0,0,.146.23,1.174,1.174,0,0,0,.132.017c.027.028.031.134.053.172.126.215.48.242.516-.05A.3.3,0,0,0,236.854,49.662Z" transform="translate(-229.196 -41.69)" fill="#fff" opacity="0.5"/>
  <path id="Path_919" data-name="Path 919" d="M241.481,50.917a.172.172,0,0,0-.061.014c-.16-.016-.3.315-.346.42a.357.357,0,0,0-.029.353.282.282,0,0,0,.317.123.694.694,0,0,0,.448-.473A.358.358,0,0,0,241.481,50.917Z" transform="translate(-233.062 -42.833)" fill="#fff" opacity="0.5"/>
  <path id="Path_920" data-name="Path 920" d="M246.611,50.658a.35.35,0,0,0-.212.1.459.459,0,0,0-.131.108.144.144,0,0,0,.027.218.337.337,0,0,0,.515-.18A.2.2,0,0,0,246.611,50.658Z" transform="translate(-237.183 -42.631)" fill="#fff" opacity="0.5"/>
  <path id="Path_921" data-name="Path 921" d="M260.866,32.929c-.123.019-.2.188-.194.317a.238.238,0,0,0,.251.228.3.3,0,0,0,.29-.174C261.25,33.171,261.061,32.9,260.866,32.929Z" transform="translate(-248.584 -28.758)" fill="#fff" opacity="0.5"/>
  <path id="Path_922" data-name="Path 922" d="M268.8,28.085a.336.336,0,0,0-.191-.032.516.516,0,0,0-.2.032c-.12.046-.177.156-.307.183-.169.035-.488.05-.4.329.069.232.44.214.616.209a.459.459,0,0,0,.337-.088.273.273,0,0,0,.08-.155.21.21,0,0,0,0-.107.117.117,0,0,0,0-.017l.065-.032A.192.192,0,0,0,268.8,28.085Z" transform="translate(-254.119 -24.944)" fill="#fff" opacity="0.5"/>
  <path id="Path_923" data-name="Path 923" d="M274.2,37.942a.211.211,0,0,0-.257.084c-.128.2.177.352.321.4a.291.291,0,0,0,.4-.277C274.647,37.906,274.376,37.9,274.2,37.942Z" transform="translate(-259.035 -32.666)" fill="#fff" opacity="0.5"/>
  <path id="Path_924" data-name="Path 924" d="M289.7,35.43a1.175,1.175,0,0,0-.306.158.319.319,0,0,0-.053.057c-.011.008-.024.015-.035.024-.106.087-.235.251-.1.38.115.11.291.042.4-.03a.638.638,0,0,0,.187-.175.665.665,0,0,0,.084-.228C289.91,35.514,289.81,35.388,289.7,35.43Z" transform="translate(-271.063 -30.711)" fill="#fff" opacity="0.5"/>
  <path id="Path_925" data-name="Path 925" d="M269.023,50.123a1.513,1.513,0,0,0-.671-.3.674.674,0,0,0-.855.475.179.179,0,0,0,.176.182c.391-.034.672.2,1.043.26.187.029.559.111.663-.123C269.492,50.363,269.188,50.22,269.023,50.123Z" transform="translate(-253.971 -41.951)" fill="#fff" opacity="0.5"/>
  <path id="Path_926" data-name="Path 926" d="M282.773,45.411c-.054-.122-.185-.134-.3-.138a.783.783,0,0,0-.25.02.672.672,0,0,0-.13.009c-.1.018-.239.035-.279.155-.1.3.358.35.534.331S282.9,45.692,282.773,45.411Z" transform="translate(-265.262 -38.416)" fill="#fff" opacity="0.5"/>
  <path id="Path_927" data-name="Path 927" d="M293.686,44.754a.112.112,0,0,0-.143.084l-.007.02a.093.093,0,0,0,.04.1l.02.014a.114.114,0,0,0,.141-.019C293.771,44.918,293.872,44.828,293.686,44.754Z" transform="translate(-274.524 -38.006)" fill="#fff" opacity="0.5"/>
  <path id="Path_928" data-name="Path 928" d="M220.286,47.23a1.694,1.694,0,0,0-.878.709,1.405,1.405,0,0,0-.226.915s.933-.233,1.046-.73A2.741,2.741,0,0,0,220.286,47.23Z" transform="translate(-215.824 -39.949)" fill="#71aa21"/>
  <path id="Path_929" data-name="Path 929" d="M213.529,44.506a.672.672,0,0,0,.853.574c.731-.192,1.292-.331,1.292-.331a2.6,2.6,0,0,0-1.058-.277C214.085,44.474,213.529,44.506,213.529,44.506Z" transform="translate(-211.369 -37.791)" fill="#71aa21"/>
  <path id="Path_930" data-name="Path 930" d="M261.826,44.913a5.281,5.281,0,0,0,.909.514c.387.146,1.345-.325,1.345-.325a2.159,2.159,0,0,0-1.133-.387A2.884,2.884,0,0,0,261.826,44.913Z" transform="translate(-249.495 -37.981)" fill="#71aa21"/>
  <path id="Path_931" data-name="Path 931" d="M253.882,44.735s.417-.519.811-.553.947-.1.947-.1a.637.637,0,0,1-.642.65A5.32,5.32,0,0,1,253.882,44.735Z" transform="translate(-243.224 -37.486)" fill="#71aa21"/>
  <path id="Path_932" data-name="Path 932" d="M267.045,58.627a.766.766,0,0,0,.533.837,1.522,1.522,0,0,0,1.089-.046.756.756,0,0,0-.549-.584A5.629,5.629,0,0,0,267.045,58.627Z" transform="translate(-253.611 -48.865)" fill="#71aa21"/>
  <path id="Path_933" data-name="Path 933" d="M252.169,16.709s-.376.274-.783.61a2.485,2.485,0,0,0-.622.989s1.273-.039,1.467-.683S252.169,16.709,252.169,16.709Z" transform="translate(-240.762 -16.07)" fill="#71aa21"/>
  <path id="Path_934" data-name="Path 934" d="M232.651,20.03a.73.73,0,0,0,.831.239c.569-.16,1.276-.313,1.276-.313a.944.944,0,0,0-.9-.29A10.2,10.2,0,0,0,232.651,20.03Z" transform="translate(-226.464 -18.366)" fill="#71aa21"/>
  <path id="Path_935" data-name="Path 935" d="M226.927,23.356s-.246.26,0,.814.565.588.565.588.408-.585.169-.923A1.53,1.53,0,0,0,226.927,23.356Z" transform="translate(-221.859 -21.271)" fill="#71aa21"/>
  <path id="Path_936" data-name="Path 936" d="M281.964,22.626c-.079.031-.895.358-1.064.7s-.383.794-.383.794a3.009,3.009,0,0,0,1.1-.612A3.226,3.226,0,0,0,281.964,22.626Z" transform="translate(-264.25 -20.7)" fill="#71aa21"/>
  <path id="Path_937" data-name="Path 937" d="M277.059,21.795a.927.927,0,0,0-.276.855,5.249,5.249,0,0,0,.292.806,4.142,4.142,0,0,0,.4-.984C277.479,22.237,277.059,21.795,277.059,21.795Z" transform="translate(-261.281 -20.049)" fill="#71aa21"/>
  <path id="Path_938" data-name="Path 938" d="M294.314,49.407a1.854,1.854,0,0,0,.227,1.121,2.332,2.332,0,0,0,.763.575,1.18,1.18,0,0,0-.154-1.135A1.166,1.166,0,0,0,294.314,49.407Z" transform="translate(-275.134 -41.652)" fill="#71aa21"/>
  <path id="Path_939" data-name="Path 939" d="M285.075,40.775s.546.654.917.746a1.814,1.814,0,0,0,.967-.221,3.587,3.587,0,0,0-.769-.267C285.82,40.961,285.075,40.775,285.075,40.775Z" transform="translate(-267.847 -34.899)" fill="#71aa21"/>
  <path id="Path_940" data-name="Path 940" d="M256.565,33.3a4,4,0,0,1-.488.7,3,3,0,0,1-.632.532s.888.261,1.12-.254A1.224,1.224,0,0,0,256.565,33.3Z" transform="translate(-244.458 -29.054)" fill="#71aa21"/>
  <path id="Path_941" data-name="Path 941" d="M228.532,44.425a.21.21,0,0,0-.313-.129c-.075.035-.274.473.152.449C228.5,44.738,228.568,44.566,228.532,44.425Z" transform="translate(-222.877 -37.632)" fill="#ffe3a6"/>
  <path id="Path_942" data-name="Path 942" d="M242.714,22.44a.214.214,0,0,0-.353.064.218.218,0,0,0-.015.108.2.2,0,0,0,.017.222c.088.114.253.064.339-.027A.276.276,0,0,0,242.714,22.44Z" transform="translate(-234.096 -20.501)" fill="#ffe3a6"/>
  <path id="Path_943" data-name="Path 943" d="M278.983,29.984a.317.317,0,0,0-.211-.175.167.167,0,0,0-.21.118.147.147,0,0,0-.045.14.278.278,0,0,0,.359.19A.19.19,0,0,0,278.983,29.984Z" transform="translate(-262.669 -26.314)" fill="#ffe3a6"/>
  <path id="Path_944" data-name="Path 944" d="M262.026,23.336a.316.316,0,0,0-.211-.175.167.167,0,0,0-.21.118.147.147,0,0,0-.045.14.278.278,0,0,0,.358.19A.19.19,0,0,0,262.026,23.336Z" transform="translate(-249.283 -21.113)" fill="#ffe3a6"/>
  <path id="Path_945" data-name="Path 945" d="M275.144,32.821a.119.119,0,0,0-.137.052.518.518,0,0,0-.2.184.137.137,0,0,0,.114.2.379.379,0,0,0,.313-.157A.172.172,0,0,0,275.144,32.821Z" transform="translate(-259.723 -28.672)" fill="#ffe3a6"/>
  <path id="Path_946" data-name="Path 946" d="M254.1,60.774a.119.119,0,0,0-.137.052.519.519,0,0,0-.2.184.137.137,0,0,0,.113.2.379.379,0,0,0,.313-.157A.172.172,0,0,0,254.1,60.774Z" transform="translate(-243.108 -50.541)" fill="#ffe3a6"/>
  <path id="Path_947" data-name="Path 947" d="M259.654,47.909a.422.422,0,0,0-.114-.18.259.259,0,0,0-.12-.33.2.2,0,0,0-.242.032.194.194,0,0,0-.039.06.286.286,0,0,0-.308.113.3.3,0,0,0,.141.453.4.4,0,0,0,.388-.079.325.325,0,0,0,.144.089A.126.126,0,0,0,259.654,47.909Z" transform="translate(-247.088 -40.061)" fill="#ffe3a6"/>
  <path id="Path_948" data-name="Path 948" d="M258.733,61.533a.273.273,0,0,0-.294.25.384.384,0,0,0-.037.142.16.16,0,0,0,.156.161c.191.007.295-.176.328-.348A.164.164,0,0,0,258.733,61.533Z" transform="translate(-246.791 -51.139)" fill="#ffe3a6"/>
  <path id="Path_949" data-name="Path 949" d="M303.7,41.567a.4.4,0,0,0-.229.052.18.18,0,0,0-.084.165.546.546,0,0,0-.051.04.139.139,0,0,0,.094.234.528.528,0,0,0,.388-.2A.176.176,0,0,0,303.7,41.567Z" transform="translate(-282.233 -35.518)" fill="#ffe3a6"/>
  <path id="Path_950" data-name="Path 950" d="M297.658,31.759a.16.16,0,0,0-.083.236s0,.006,0,.01c.006.223.358.484.483.206A.359.359,0,0,0,297.658,31.759Z" transform="translate(-277.696 -27.837)" fill="#ffe3a6"/>
  <path id="Path_951" data-name="Path 951" d="M280.028,41.3a.34.34,0,0,0-.448.042.213.213,0,0,0-.107.286.285.285,0,0,0,.328.148.443.443,0,0,0,.3-.2A.205.205,0,0,0,280.028,41.3Z" transform="translate(-263.409 -35.261)" fill="#ffe3a6"/>
  <path id="Path_952" data-name="Path 952" d="M263.953,58.98a.34.34,0,0,0-.448.042.213.213,0,0,0-.107.286.285.285,0,0,0,.328.148.442.442,0,0,0,.3-.2A.205.205,0,0,0,263.953,58.98Z" transform="translate(-250.72 -49.091)" fill="#ffe3a6"/>
</svg>
