<svg id="main-course-icon" xmlns="http://www.w3.org/2000/svg" width="24" height="24" viewBox="0 0 24 24">
  <g id="Group_160" data-name="Group 160" transform="translate(1.609 12.238)">
    <ellipse id="Ellipse_20" data-name="Ellipse 20" cx="9.582" cy="4.842" rx="9.582" ry="4.842" transform="translate(0.48 1.875)" fill="#b15312"/>
    <path id="Path_576" data-name="Path 576" d="M126.271,101.63a5.894,5.894,0,0,0,.773,2.821c.739,1,17.815,1.1,18.5.138a7.447,7.447,0,0,0,.847-2.96Z" transform="translate(-126.271 -96.545)" fill="#b15312"/>
    <ellipse id="Ellipse_21" data-name="Ellipse 21" cx="10.062" cy="5.085" rx="10.062" ry="5.085" transform="translate(0 0)" fill="#d2742e"/>
  </g>
  <g id="Group_161" data-name="Group 161" transform="translate(0 14.29)">
    <path id="Path_577" data-name="Path 577" d="M147.374,98.057c.068-1.188-1.88-1.3-3.095-1.576-.694-.16-.289-.752-.946-.552-2.265.688-3.774,1.519-6.329,1.444-3.745-.11-7.518-.609-11.255-.883a.394.394,0,0,0-.42.232c-.776.028-2.667.605-1.669,1.384.406.316,1.185.844.836,1.262a1.867,1.867,0,0,0-.365,2.093c.287.395,1.637-.6,2.723.023.734.423-.393,1.394,1.139,1.941.528.189,1.475-.74,1.927-.646,1.4.288.716,1.983,1.677,2.414,1.209.543,1.8-3.787,3.59-1.269.708,1,1.314,1.743,2.03,1.669,1.952-.2,1.607-2.277,1.848-2.466,1.224-.956,2.185,1.227,4.035.467,1.075-.442.01-1.919.367-2.657C144.154,99.515,147.261,100.05,147.374,98.057Z" transform="translate(-123.376 -95.887)" fill="#b4e20e"/>
    <path id="Path_578" data-name="Path 578" d="M127.885,101.764s-1.5.159-1.9.667-.593.864-.247,1.085,2.869-.861,2.869-.861Z" transform="translate(-124.347 -98.66)" fill="#a0c600"/>
    <path id="Path_579" data-name="Path 579" d="M132.67,104.809a3.53,3.53,0,0,0-.574,1.081c-.269.74.287,1.022,1.147.506s1-.789,1-.789Z" transform="translate(-127.218 -100.097)" fill="#a0c600"/>
    <path id="Path_580" data-name="Path 580" d="M138.083,108.374a8.162,8.162,0,0,0,0,1.451c.078.584.842-.12.93-1.037S138.083,108.374,138.083,108.374Z" transform="translate(-129.891 -101.715)" fill="#a0c600"/>
    <path id="Path_581" data-name="Path 581" d="M144.616,107.991s.806.861,1.354,1.492a.733.733,0,0,0,1.284-.688,2.386,2.386,0,0,0-.867-1.285Z" transform="translate(-132.808 -101.372)" fill="#a0c600"/>
    <path id="Path_582" data-name="Path 582" d="M152.348,105.863a9.312,9.312,0,0,1,1.909.885c.692.481,1.474.54.881-.547s-.93-1.12-.93-1.12Z" transform="translate(-136.241 -100.225)" fill="#a0c600"/>
    <path id="Path_583" data-name="Path 583" d="M160,100.727c.177-.059,2.3.12,2.551-.486s-1.229-.6-1.229-.6Z" transform="translate(-139.639 -97.66)" fill="#a0c600"/>
  </g>
  <g id="Group_162" data-name="Group 162" transform="translate(0.426 10.291)">
    <path id="Path_584" data-name="Path 584" d="M133.812,88.447l-9.669,4.593a23.567,23.567,0,0,0,3.616,3.547,27.438,27.438,0,0,0,5.272,2.883,36.719,36.719,0,0,0,6.918-1.954,36.463,36.463,0,0,0,6.394-3.855S136.9,87.336,133.812,88.447Z" transform="translate(-124.143 -88.316)" fill="#ffd654"/>
    <path id="Path_585" data-name="Path 585" d="M124.143,97.26a23.723,23.723,0,0,0,5.66,5.153c2.948,1.681,3.289,1.822,3.289,1.822s5.256-1.162,6.891-1.822a16.468,16.468,0,0,0,6.361-4.531s-5.024,3.561-8.444,4.383-4.756,1.139-4.756,1.139-2.831-1.511-5.346-3.193C126.5,99.344,124.143,97.26,124.143,97.26Z" transform="translate(-124.143 -92.536)" fill="#feb52c"/>
  </g>
  <g id="Group_163" data-name="Group 163" transform="translate(1.605 7.629)">
    <ellipse id="Ellipse_22" data-name="Ellipse 22" cx="9.885" cy="4.995" rx="9.885" ry="4.995" transform="translate(0.037 1.383)" fill="#b15312"/>
    <path id="Path_586" data-name="Path 586" d="M146.039,90.751l-19.74-.373a3.969,3.969,0,0,1,1.14-3.3c2.909-3.17,14.707-2.983,17.7.328A4.606,4.606,0,0,1,146.039,90.751Z" transform="translate(-126.263 -84)" fill="#b15312"/>
    <ellipse id="Ellipse_23" data-name="Ellipse 23" cx="9.321" cy="4.71" rx="9.321" ry="4.71" transform="translate(0.601)" fill="#d2742e"/>
    <path id="Path_587" data-name="Path 587" d="M129.407,93.551s-.644.973.079.987C130.25,94.552,129.407,93.551,129.407,93.551Z" transform="translate(-127.542 -88.124)" fill="#ffc648"/>
    <path id="Path_588" data-name="Path 588" d="M149.626,96.755s-.644.973.079.987C150.47,97.756,149.626,96.755,149.626,96.755Z" transform="translate(-136.52 -89.636)" fill="#ffc648"/>
    <path id="Path_589" data-name="Path 589" d="M144.731,102.752s.971-.686.3-.947C144.325,101.529,144.731,102.752,144.731,102.752Z" transform="translate(-134.412 -91.999)" fill="#ffc648"/>
    <path id="Path_590" data-name="Path 590" d="M148.89,91.791s.971-.686.3-.947C148.484,90.567,148.89,91.791,148.89,91.791Z" transform="translate(-136.259 -86.827)" fill="#ffc648"/>
    <path id="Path_591" data-name="Path 591" d="M157.014,98.794s-1.164.314-.636.784C156.937,100.074,157.014,98.794,157.014,98.794Z" transform="translate(-139.575 -90.598)" fill="#ffc648"/>
    <path id="Path_592" data-name="Path 592" d="M139.955,97.823s.525-.893,1.24-.661S140.861,98.2,139.955,97.823Z" transform="translate(-132.343 -89.81)" fill="#ffc648"/>
    <path id="Path_593" data-name="Path 593" d="M142.611,87.9s.524-.893,1.24-.661S143.517,88.28,142.611,87.9Z" transform="translate(-133.522 -85.129)" fill="#ffc648"/>
    <path id="Path_594" data-name="Path 594" d="M150.556,101.659s.524-.893,1.24-.661S151.462,102.036,150.556,101.659Z" transform="translate(-137.05 -91.62)" fill="#ffc648"/>
    <path id="Path_595" data-name="Path 595" d="M131.813,90.378s-.524-.893-1.24-.661S130.907,90.754,131.813,90.378Z" transform="translate(-128.072 -86.297)" fill="#ffc648"/>
    <path id="Path_596" data-name="Path 596" d="M154.069,89.052s-.525-.893-1.24-.661S153.162,89.429,154.069,89.052Z" transform="translate(-137.954 -85.671)" fill="#ffc648"/>
    <path id="Path_597" data-name="Path 597" d="M130.485,98.579s-.524-.893-1.24-.661S129.579,98.956,130.485,98.579Z" transform="translate(-127.482 -90.167)" fill="#ffc648"/>
    <path id="Path_598" data-name="Path 598" d="M135.046,93.018s-1.24.35-.692.775S135.046,93.018,135.046,93.018Z" transform="translate(-129.794 -87.872)" fill="#ffc648"/>
    <path id="Path_599" data-name="Path 599" d="M149.645,85.906s-.476-1.142-.874-.586S149.645,85.906,149.645,85.906Z" transform="translate(-136.224 -84.168)" fill="#ffc648"/>
    <path id="Path_600" data-name="Path 600" d="M153.727,94.257s-1.24.35-.692.775S153.727,94.257,153.727,94.257Z" transform="translate(-138.089 -88.457)" fill="#ffc648"/>
    <path id="Path_601" data-name="Path 601" d="M140.787,101.81s-1.24.35-.692.775S140.787,101.81,140.787,101.81Z" transform="translate(-132.343 -92.021)" fill="#ffc648"/>
    <path id="Path_602" data-name="Path 602" d="M136.928,87.523s-.382-1.174-.824-.648S136.928,87.523,136.928,87.523Z" transform="translate(-130.591 -84.91)" fill="#ffc648"/>
    <path id="Path_603" data-name="Path 603" d="M132.808,99.855s-.208,1.213.434.929S132.808,99.855,132.808,99.855Z" transform="translate(-129.155 -91.099)" fill="#ffc648"/>
    <path id="Path_604" data-name="Path 604" d="M140.561,91.972s.268,1.2.758.717S140.561,91.972,140.561,91.972Z" transform="translate(-132.612 -87.379)" fill="#ffc648"/>
    <path id="Path_605" data-name="Path 605" d="M132.618,95.484l-.468.74,1.147.126Z" transform="translate(-128.877 -89.036)" fill="#a44105"/>
    <path id="Path_606" data-name="Path 606" d="M140.078,94.658l-1.216.561.988.309Z" transform="translate(-131.857 -88.646)" fill="#a44105"/>
    <path id="Path_607" data-name="Path 607" d="M136.47,99.644l-.459,1.083,1.335.036Z" transform="translate(-130.592 -90.999)" fill="#a44105"/>
    <path id="Path_608" data-name="Path 608" d="M146.279,95.9s-.739.8-.667.831,1,.216,1,.216Z" transform="translate(-134.853 -89.231)" fill="#a44105"/>
    <path id="Path_609" data-name="Path 609" d="M154.658,96.449l-.738.453.738.5Z" transform="translate(-138.544 -89.491)" fill="#a44105"/>
    <path id="Path_610" data-name="Path 610" d="M148.231,99.644l.048,1.247s1.027-1.216.907-1.136A3.264,3.264,0,0,1,148.231,99.644Z" transform="translate(-136.018 -90.999)" fill="#a44105"/>
    <path id="Path_611" data-name="Path 611" d="M152.652,91.068l-.3.779,1.038-.3Z" transform="translate(-137.846 -86.952)" fill="#a44105"/>
    <path id="Path_612" data-name="Path 612" d="M157.365,88.716l.62,1.242.548-.621Z" transform="translate(-140.074 -85.842)" fill="#a44105"/>
    <path id="Path_613" data-name="Path 613" d="M157.873,93.838l-.679.433.93.366Z" transform="translate(-139.998 -88.26)" fill="#a44105"/>
    <path id="Path_614" data-name="Path 614" d="M145.1,89.892l-.211.734.787-.252Z" transform="translate(-134.533 -86.397)" fill="#a44105"/>
    <path id="Path_615" data-name="Path 615" d="M136.011,89.777l1.1.636.072-.734Z" transform="translate(-130.592 -86.297)" fill="#a44105"/>
    <path id="Path_616" data-name="Path 616" d="M132.834,86.566l-.683.577s.953.251.906.16S132.834,86.566,132.834,86.566Z" transform="translate(-128.877 -84.828)" fill="#a44105"/>
    <path id="Path_617" data-name="Path 617" d="M139.784,85.894l.511.733.416-.677Z" transform="translate(-132.267 -84.511)" fill="#a44105"/>
    <path id="Path_618" data-name="Path 618" d="M146.3,84.9l.262.877.572-.488Z" transform="translate(-135.161 -84.044)" fill="#a44105"/>
  </g>
  <g id="Group_164" data-name="Group 164" transform="translate(2.738 6.39)">
    <rect id="Rectangle_40" data-name="Rectangle 40" width="17.576" height="0.901" transform="translate(0 4.396)" fill="#ed2b2b"/>
    <path id="Path_619" data-name="Path 619" d="M145.878,86.694c0,2.453-3.934,4.441-8.788,4.441s-8.788-1.988-8.788-4.441,3.934-4.441,8.788-4.441S145.878,84.241,145.878,86.694Z" transform="translate(-128.302 -81.554)" fill="#ed2b2b"/>
    <path id="Path_620" data-name="Path 620" d="M145.878,85.371c0,2.453-3.934,4.441-8.788,4.441s-8.788-1.988-8.788-4.441,3.934-4.441,8.788-4.441S145.878,82.918,145.878,85.371Z" transform="translate(-128.302 -80.93)" fill="#ff6969"/>
    <path id="Path_621" data-name="Path 621" d="M145.694,85.995c0,2.067-3.524,3.742-7.872,3.742s-7.872-1.675-7.872-3.742,3.524-3.742,7.872-3.742S145.694,83.928,145.694,85.995Z" transform="translate(-129.034 -81.554)" fill="#ff4343"/>
    <path id="Path_622" data-name="Path 622" d="M133.477,88.277c-.751.022-2.967-2.41-.071-4.06s6.794-1.11,7.6-.928c1.129.255-.063,1.248-1.4,1.342a11.181,11.181,0,0,0-2.9.566c-1.021.424-1.415,1.064-1.382,1.392C135.385,87.189,134.118,88.257,133.477,88.277Z" transform="translate(-129.925 -81.934)" fill="#ed2b2b"/>
    <path id="Path_623" data-name="Path 623" d="M138.43,88.286c-.811.406-2.056,1.47-.667,1.856a12.234,12.234,0,0,0,8.082-.608c2.139-.96,2.647-2.54,1.4-3.652a2.02,2.02,0,0,0-2.312-.564c-1.179.727-.143,2.019-2.436,2.447C141.148,88.018,139.351,87.825,138.43,88.286Z" transform="translate(-132.225 -82.919)" fill="#ed2b2b"/>
    <path id="Path_624" data-name="Path 624" d="M145.132,84.59s.612-.758-.127-.741C144.519,83.86,145.132,84.59,145.132,84.59Z" transform="translate(-135.636 -82.307)" fill="#ff6969"/>
    <path id="Path_625" data-name="Path 625" d="M143.16,84.672s0-.962-.791-.844C141.85,83.9,143.16,84.672,143.16,84.672Z" transform="translate(-134.494 -82.292)" fill="#ff6969"/>
    <path id="Path_626" data-name="Path 626" d="M140.826,84.962s-.513-.875-1.085-.7S140.826,84.962,140.826,84.962Z" transform="translate(-133.328 -82.49)" fill="#ff6969"/>
    <path id="Path_627" data-name="Path 627" d="M138.4,85.712s-.607-1.041-1.394-.73S138.4,85.712,138.4,85.712Z" transform="translate(-132.088 -82.814)" fill="#ff6969"/>
    <path id="Path_628" data-name="Path 628" d="M136.44,86.956s-.962-1.087-1.843-.549C134.009,86.765,136.44,86.956,136.44,86.956Z" transform="translate(-131.056 -83.444)" fill="#ff6969"/>
    <path id="Path_629" data-name="Path 629" d="M135.436,88.555s-1.411-.462-1.888-.14S134.431,89.188,135.436,88.555Z" transform="translate(-130.588 -84.408)" fill="#ff6969"/>
    <path id="Path_630" data-name="Path 630" d="M135.591,90.107a3.736,3.736,0,0,0-1.459.341c-.232.151,0,.516.466.43A1.232,1.232,0,0,0,135.591,90.107Z" transform="translate(-130.85 -85.26)" fill="#ff6969"/>
    <path id="Path_631" data-name="Path 631" d="M151.072,86.6a1.584,1.584,0,0,1,1.013-.349c.573.03.847.381.167.427A4.286,4.286,0,0,1,151.072,86.6Z" transform="translate(-138.413 -83.442)" fill="#ff6969"/>
    <path id="Path_632" data-name="Path 632" d="M139.76,91.482a3.151,3.151,0,0,0-.891.7c-.191.306.548.623.774.068S139.76,91.482,139.76,91.482Z" transform="translate(-132.98 -85.909)" fill="#ff6969"/>
    <path id="Path_633" data-name="Path 633" d="M142.186,91.482a1.116,1.116,0,0,0-.249.77c.024.475.673.589.629,0A.923.923,0,0,0,142.186,91.482Z" transform="translate(-134.356 -85.909)" fill="#ff6969"/>
    <path id="Path_634" data-name="Path 634" d="M144.4,91.249a3.545,3.545,0,0,0,.143.893c.131.384,1.073.589.692-.091A1.587,1.587,0,0,0,144.4,91.249Z" transform="translate(-135.452 -85.799)" fill="#ff6969"/>
    <path id="Path_635" data-name="Path 635" d="M146.83,91.074a3.173,3.173,0,0,0,.761.986c.5.419,1.025.1.56-.374A2.743,2.743,0,0,0,146.83,91.074Z" transform="translate(-136.529 -85.717)" fill="#ff6969"/>
    <path id="Path_636" data-name="Path 636" d="M148.949,90.274a4.483,4.483,0,0,0,1.1.9c.6.317,1.192.011.477-.385A5.144,5.144,0,0,0,148.949,90.274Z" transform="translate(-137.47 -85.339)" fill="#ff6969"/>
    <path id="Path_637" data-name="Path 637" d="M150.515,89.061a5.841,5.841,0,0,0,1.644.745c.632.094,1.037-.543.322-.657A14.787,14.787,0,0,0,150.515,89.061Z" transform="translate(-138.166 -84.766)" fill="#ff6969"/>
    <path id="Path_638" data-name="Path 638" d="M151.231,87.9a4.536,4.536,0,0,1,1.366-.2c.513.057.953.385.405.408A11.7,11.7,0,0,1,151.231,87.9Z" transform="translate(-138.484 -84.121)" fill="#ff6969"/>
  </g>
  <g id="Group_165" data-name="Group 165" transform="translate(0.412 7.115)">
    <path id="Path_639" data-name="Path 639" d="M147.056,84.377c.065-1.135-1.8-1.24-2.958-1.507-.664-.152-.276-.718-.9-.528-2.165.657-3.607,1.452-6.049,1.38-3.58-.106-7.186-.582-10.758-.843a.377.377,0,0,0-.4.222c-.742.027-2.55.578-1.6,1.323.388.3,1.132.808.8,1.206a1.784,1.784,0,0,0-.349,2c.275.378,1.565-.576,2.6.022.7.4-.376,1.332,1.089,1.855.5.18,1.41-.707,1.842-.618,1.336.276.684,1.895,1.6,2.308,1.156.519,1.721-3.62,3.431-1.214.676.952,1.256,1.667,1.941,1.6,1.866-.192,1.536-2.177,1.766-2.358,1.17-.914,2.089,1.174,3.857.446,1.027-.422.009-1.834.35-2.54C143.978,85.771,146.947,86.282,147.056,84.377Z" transform="translate(-124.117 -82.304)" fill="#b4e20e"/>
    <path id="Path_640" data-name="Path 640" d="M128.428,87.92s-1.434.152-1.812.637-.568.826-.236,1.037,2.742-.823,2.742-.823Z" transform="translate(-125.046 -84.954)" fill="#a0c600"/>
    <path id="Path_641" data-name="Path 641" d="M133,90.831a3.362,3.362,0,0,0-.548,1.033c-.256.708.275.978,1.1.484s.955-.754.955-.754Z" transform="translate(-127.79 -86.327)" fill="#a0c600"/>
    <path id="Path_642" data-name="Path 642" d="M138.175,94.238a7.789,7.789,0,0,0,0,1.387c.075.558.8-.115.889-.991S138.175,94.238,138.175,94.238Z" transform="translate(-130.345 -87.873)" fill="#a0c600"/>
    <path id="Path_643" data-name="Path 643" d="M144.419,93.871s.77.823,1.295,1.426a.7.7,0,0,0,1.227-.657,2.279,2.279,0,0,0-.828-1.228Z" transform="translate(-133.133 -87.545)" fill="#a0c600"/>
    <path id="Path_644" data-name="Path 644" d="M151.81,91.837a8.9,8.9,0,0,1,1.824.846c.662.459,1.409.517.842-.522s-.889-1.071-.889-1.071Z" transform="translate(-136.415 -86.45)" fill="#a0c600"/>
    <path id="Path_645" data-name="Path 645" d="M159.124,86.929c.169-.056,2.2.116,2.438-.464s-1.174-.571-1.174-.571Z" transform="translate(-139.662 -83.998)" fill="#a0c600"/>
  </g>
  <g id="Group_168" data-name="Group 168" transform="translate(1.464)">
    <g id="Group_166" data-name="Group 166">
      <path id="Path_646" data-name="Path 646" d="M137.623,79.024c4.92-.677,6.9-3.429,6.657-6.636a10.517,10.517,0,0,0-8.046-3.557c-4.9,0-8.956,3.088-9.858,7.171C128.114,79.69,133.567,79.581,137.623,79.024Z" transform="translate(-126.173 -68.831)" fill="#d2742e"/>
      <path id="Path_647" data-name="Path 647" d="M126.01,80.6c0,.013,0,.025,0,.038s0,.031,0,.046h.008c.09,2.769,4.553,5,10.054,5s9.965-2.232,10.054-5h.008c0-.015,0-.031,0-.046s0-.025,0-.038a2.593,2.593,0,0,0-.039-.394,8.258,8.258,0,0,0-1.977-4.637c.239,3.207-1.737,5.96-6.657,6.636-4.057.557-9.509.665-11.247-3.022a8.023,8.023,0,0,0-.165,1.023A2.666,2.666,0,0,0,126.01,80.6Z" transform="translate(-126.01 -72.009)" fill="#b15312"/>
    </g>
    <path id="Path_648" data-name="Path 648" d="M138.525,73.228c0,.234-.264.425-.59.425s-.589-.19-.589-.425.264-.425.589-.425S138.525,72.993,138.525,73.228Z" transform="translate(-131.044 -70.705)" fill="#b15312"/>
    <path id="Path_649" data-name="Path 649" d="M144.868,81.924c0,.234-.264.425-.589.425s-.59-.19-.59-.425.264-.425.59-.425S144.868,81.689,144.868,81.924Z" transform="translate(-133.861 -74.809)" fill="#b15312"/>
    <path id="Path_650" data-name="Path 650" d="M133.4,75.464c.1.214-.057.491-.354.617a.55.55,0,0,1-.721-.157c-.1-.214.057-.49.354-.617A.55.55,0,0,1,133.4,75.464Z" transform="translate(-128.801 -71.857)" fill="#b15312"/>
    <path id="Path_651" data-name="Path 651" d="M144.605,71.275c0,.234-.264.425-.59.425s-.589-.19-.589-.425.264-.425.589-.425S144.605,71.041,144.605,71.275Z" transform="translate(-133.744 -69.784)" fill="#b15312"/>
    <path id="Path_652" data-name="Path 652" d="M147.071,75.97a.541.541,0,0,1-.671.3c-.318-.065-.534-.3-.482-.533a.541.541,0,0,1,.671-.3C146.907,75.5,147.123,75.74,147.071,75.97Z" transform="translate(-134.847 -71.94)" fill="#b15312"/>
    <path id="Path_653" data-name="Path 653" d="M152.119,79.781a.552.552,0,0,1-.733.1c-.285-.151-.417-.439-.3-.644a.552.552,0,0,1,.733-.1C152.107,79.288,152.24,79.576,152.119,79.781Z" transform="translate(-137.127 -73.651)" fill="#b15312"/>
    <path id="Path_654" data-name="Path 654" d="M138.523,79.477c.026.233-.215.449-.538.483s-.608-.129-.634-.362.214-.449.538-.483S138.5,79.244,138.523,79.477Z" transform="translate(-131.045 -73.682)" fill="#b15312"/>
    <path id="Path_655" data-name="Path 655" d="M132.867,79.983a.494.494,0,0,1-.227.669.553.553,0,0,1-.739-.027.493.493,0,0,1,.227-.669A.553.553,0,0,1,132.867,79.983Z" transform="translate(-128.598 -74.021)" fill="#b15312"/>
    <path id="Path_656" data-name="Path 656" d="M155.227,76.052a.552.552,0,0,1-.732-.105.49.49,0,0,1-.091-.7.553.553,0,0,1,.732.106A.488.488,0,0,1,155.227,76.052Z" transform="translate(-138.57 -71.814)" fill="#b15312"/>
    <g id="Group_167" data-name="Group 167" transform="translate(2.405 1.035)">
      <path id="Path_657" data-name="Path 657" d="M134.215,82.415s.161-1.312.831-.872C135.514,81.849,134.215,82.415,134.215,82.415Z" transform="translate(-132.059 -75.821)" fill="#ffc648"/>
      <path id="Path_658" data-name="Path 658" d="M148.711,72.855s.161-1.312.831-.872C150.01,72.289,148.711,72.855,148.711,72.855Z" transform="translate(-138.496 -71.31)" fill="#ffc648"/>
      <path id="Path_659" data-name="Path 659" d="M141.424,76.864s-1-.585-.411-.859C141.818,75.629,141.424,76.864,141.424,76.864Z" transform="translate(-134.995 -73.217)" fill="#ffc648"/>
      <path id="Path_660" data-name="Path 660" d="M130.932,77.745s-1-.585-.411-.859C131.326,76.509,130.932,77.745,130.932,77.745Z" transform="translate(-130.336 -73.633)" fill="#ffc648"/>
      <path id="Path_661" data-name="Path 661" d="M140.222,81.531s-.846,1.064.115,1.019C140.958,82.522,140.222,81.531,140.222,81.531Z" transform="translate(-134.574 -75.858)" fill="#ffc648"/>
      <path id="Path_662" data-name="Path 662" d="M146.067,79.111s1.657.055,1.461.4C147.032,80.389,146.067,79.111,146.067,79.111Z" transform="translate(-137.322 -74.716)" fill="#ffc648"/>
      <path id="Path_663" data-name="Path 663" d="M139.72,70.79s1.657.055,1.461.4C140.685,72.068,139.72,70.79,139.72,70.79Z" transform="translate(-134.503 -70.79)" fill="#ffc648"/>
      <path id="Path_664" data-name="Path 664" d="M150.389,75.9c.254-.707,1.384.506,1.384.506S150.169,76.511,150.389,75.9Z" transform="translate(-139.231 -73.096)" fill="#ffc648"/>
      <path id="Path_665" data-name="Path 665" d="M136.105,76.34c.254-.707,1.384.506,1.384.506S135.886,76.953,136.105,76.34Z" transform="translate(-132.889 -73.305)" fill="#ffc648"/>
    </g>
  </g>
</svg>
